<?xml version="1.0" encoding="UTF-8" standalone="no"?>
<!-- Created with Inkscape (http://www.inkscape.org/) -->

<svg
   xmlns:dc="http://purl.org/dc/elements/1.1/"
   xmlns:cc="http://creativecommons.org/ns#"
   xmlns:rdf="http://www.w3.org/1999/02/22-rdf-syntax-ns#"
   xmlns:svg="http://www.w3.org/2000/svg"
   xmlns="http://www.w3.org/2000/svg"
   xmlns:xlink="http://www.w3.org/1999/xlink"
   xmlns:sodipodi="http://sodipodi.sourceforge.net/DTD/sodipodi-0.dtd"
   xmlns:inkscape="http://www.inkscape.org/namespaces/inkscape"
   width="210mm"
   height="297mm"
   viewBox="0 0 210 297"
   version="1.1"
   id="svg8"
   inkscape:version="0.92.4 (5da689c313, 2019-01-14)"
   sodipodi:docname="Wiring Diagram.svg">
  <defs
     id="defs2">
    <marker
       inkscape:isstock="true"
       orient="auto"
       refY="0"
       refX="0"
       id="marker3147"
       inkscape:stockid="InfiniteLineStart"
       style="overflow:visible">
      <g
         transform="translate(-13,0)"
         style="fill:#000000;stroke:#000000;stroke-opacity:1;fill-opacity:1"
         id="g3145">
        <circle
           style="stroke:#000000;stroke-opacity:1;fill:#000000;fill-opacity:1"
           cx="3"
           cy="0"
           r="0.8"
           id="circle3139" />
        <circle
           style="stroke:#000000;stroke-opacity:1;fill:#000000;fill-opacity:1"
           cx="6.5"
           cy="0"
           r="0.8"
           id="circle3141" />
        <circle
           style="stroke:#000000;stroke-opacity:1;fill:#000000;fill-opacity:1"
           cx="10"
           cy="0"
           r="0.8"
           id="circle3143" />
      </g>
    </marker>
    <marker
       style="overflow:visible"
       inkscape:stockid="InfiniteLineStart"
       id="InfiniteLineStart"
       refX="0"
       refY="0"
       orient="auto"
       inkscape:isstock="true"
       inkscape:collect="always">
      <g
         id="g2632"
         style="fill:#000000;stroke:#000000;stroke-opacity:1;fill-opacity:1"
         transform="translate(-13,0)">
        <circle
           id="circle2626"
           r="0.8"
           cy="0"
           cx="3"
           style="stroke:#000000;stroke-opacity:1;fill:#000000;fill-opacity:1" />
        <circle
           id="circle2628"
           r="0.8"
           cy="0"
           cx="6.5"
           style="stroke:#000000;stroke-opacity:1;fill:#000000;fill-opacity:1" />
        <circle
           id="circle2630"
           r="0.8"
           cy="0"
           cx="10"
           style="stroke:#000000;stroke-opacity:1;fill:#000000;fill-opacity:1" />
      </g>
    </marker>
    <marker
       inkscape:isstock="true"
       orient="auto"
       refY="0"
       refX="0"
       id="marker2847"
       inkscape:stockid="InfiniteLineEnd"
       style="overflow:visible">
      <g
         style="fill:#000000;stroke:#000000;stroke-opacity:1;fill-opacity:1"
         id="g2845">
        <circle
           style="stroke:#000000;stroke-opacity:1;fill:#000000;fill-opacity:1"
           cx="3"
           cy="0"
           r="0.8"
           id="circle2839" />
        <circle
           style="stroke:#000000;stroke-opacity:1;fill:#000000;fill-opacity:1"
           cx="6.5"
           cy="0"
           r="0.8"
           id="circle2841" />
        <circle
           style="stroke:#000000;stroke-opacity:1;fill:#000000;fill-opacity:1"
           cx="10"
           cy="0"
           r="0.8"
           id="circle2843" />
      </g>
    </marker>
    <marker
       inkscape:isstock="true"
       orient="auto"
       refY="0"
       refX="0"
       id="marker2717"
       inkscape:stockid="InfiniteLineEnd"
       style="overflow:visible">
      <g
         style="fill:#000000;stroke:#000000;stroke-opacity:1;fill-opacity:1"
         id="g2715">
        <circle
           style="stroke:#000000;stroke-opacity:1;fill:#000000;fill-opacity:1"
           cx="3"
           cy="0"
           r="0.8"
           id="circle2709" />
        <circle
           style="stroke:#000000;stroke-opacity:1;fill:#000000;fill-opacity:1"
           cx="6.5"
           cy="0"
           r="0.8"
           id="circle2711" />
        <circle
           style="stroke:#000000;stroke-opacity:1;fill:#000000;fill-opacity:1"
           cx="10"
           cy="0"
           r="0.8"
           id="circle2713" />
      </g>
    </marker>
    <marker
       style="overflow:visible"
       inkscape:stockid="InfiniteLineEnd"
       id="InfiniteLineEnd"
       refX="0"
       refY="0"
       orient="auto"
       inkscape:isstock="true"
       inkscape:collect="always">
      <g
         id="g2623"
         style="fill:#000000;stroke:#000000;stroke-opacity:1;fill-opacity:1">
        <circle
           id="circle2617"
           r="0.8"
           cy="0"
           cx="3"
           style="stroke:#000000;stroke-opacity:1;fill:#000000;fill-opacity:1" />
        <circle
           id="circle2619"
           r="0.8"
           cy="0"
           cx="6.5"
           style="stroke:#000000;stroke-opacity:1;fill:#000000;fill-opacity:1" />
        <circle
           id="circle2621"
           r="0.8"
           cy="0"
           cx="10"
           style="stroke:#000000;stroke-opacity:1;fill:#000000;fill-opacity:1" />
      </g>
    </marker>
    <pattern
       inkscape:collect="always"
       xlink:href="#Strips1_4"
       id="pattern2338"
       patternTransform="matrix(0.01710613,0.00458357,-0.08641165,0.32249266,101.90183,52.29434)" />
    <pattern
       inkscape:collect="always"
       xlink:href="#Strips1_4"
       id="pattern2320"
       patternTransform="matrix(0.01713429,0.00989249,-0.127524,0.22087806,101.90183,52.29434)" />
    <pattern
       inkscape:stockid="Stripes 1:4"
       id="Strips1_4"
       patternTransform="translate(0,0) scale(10,10)"
       height="1"
       width="5"
       patternUnits="userSpaceOnUse"
       inkscape:collect="always">
      <rect
         id="rect1614"
         height="2"
         width="1"
         y="-0.5"
         x="0"
         style="fill:black;stroke:none" />
    </pattern>
  </defs>
  <sodipodi:namedview
     id="base"
     pagecolor="#ffffff"
     bordercolor="#666666"
     borderopacity="1.0"
     inkscape:pageopacity="0.0"
     inkscape:pageshadow="2"
     inkscape:zoom="0.8911532"
     inkscape:cx="416.36761"
     inkscape:cy="892.49997"
     inkscape:document-units="mm"
     inkscape:current-layer="layer1"
     showgrid="false"
     inkscape:snap-global="false"
     showguides="true"
     inkscape:guide-bbox="true"
     inkscape:window-width="1920"
     inkscape:window-height="1138"
     inkscape:window-x="1912"
     inkscape:window-y="-8"
     inkscape:window-maximized="1" />
  <metadata
     id="metadata5">
    <rdf:RDF>
      <cc:Work
         rdf:about="">
        <dc:format>image/svg+xml</dc:format>
        <dc:type
           rdf:resource="http://purl.org/dc/dcmitype/StillImage" />
        <dc:title></dc:title>
      </cc:Work>
    </rdf:RDF>
  </metadata>
  <g
     inkscape:label="Layer 1"
     inkscape:groupmode="layer"
     id="layer1">
    <g
       id="g4177"
       transform="matrix(1.3081155,0,0,1.3081155,-39.107144,-42.623589)">
      <rect
         y="58.351227"
         x="56.511425"
         height="17.464954"
         width="27.835682"
         id="rect826"
         style="fill:none;stroke:#000000;stroke-width:0.61812031;stroke-miterlimit:4;stroke-dasharray:none" />
      <text
         id="text830"
         y="68.144989"
         x="61.278271"
         style="font-style:normal;font-variant:normal;font-weight:normal;font-stretch:normal;font-size:4.3436079px;line-height:1.25;font-family:'Helvetica Neue LT Com';-inkscape-font-specification:'Helvetica Neue LT Com';letter-spacing:0px;word-spacing:0px;fill:#000000;fill-opacity:1;stroke:none;stroke-width:0.1085902"
         xml:space="preserve"><tspan
           style="font-style:normal;font-variant:normal;font-weight:normal;font-stretch:normal;font-family:'Helvetica Neue LT Com';-inkscape-font-specification:'Helvetica Neue LT Com';stroke-width:0.1085902"
           y="68.144989"
           x="61.278271"
           id="tspan828"
           sodipodi:role="line">Hardware</tspan></text>
      <path
         inkscape:connector-curvature="0"
         id="path854"
         d="m 128.7499,70.54261 c -0.006,3e-4 -0.01,0.001 -0.0117,0.004 -0.0279,0.0322 0.0634,0.0798 0.11955,0.0623 0.0335,-0.0104 0.0234,-0.0309 -0.0237,-0.0481 -0.0339,-0.0123 -0.0667,-0.019 -0.0841,-0.018 z m -8.29668,0.0166 -0.36597,0.32806 -0.36598,0.32807 0.012,0.34056 c 0.007,0.18729 0.0323,0.35813 0.0571,0.37971 0.0132,0.0115 0.0367,0.005 0.0672,-0.0169 l -0.0315,-0.43689 0.008,-0.003 c -0.0191,-0.2402 -0.002,-0.2691 0.14715,-0.38595 0.0935,-0.0732 0.2368,-0.2085 0.3184,-0.3006 0.1399,-0.15791 0.17153,-0.16607 0.55679,-0.14378 0.82297,0.0476 0.78637,0.0172 -0.0722,-0.06 z m 8.57882,0.13016 c -0.004,2.3e-4 -0.006,0.0268 -0.008,0.0798 -0.003,0.0643 8.8e-4,0.12271 0.009,0.12987 0.0327,0.0284 0.04,-0.0225 0.0189,-0.13187 -0.01,-0.0521 -0.0157,-0.078 -0.0196,-0.0778 z m -7.04101,0.006 c -0.008,0.001 -2.9e-4,0.0142 0.019,0.031 0.0221,0.0192 0.10922,0.0242 0.19354,0.0112 l 0.15327,-0.0237 -0.16795,-0.007 c -0.0924,-0.004 -0.17949,-0.009 -0.19354,-0.0111 v -6e-5 c -0.002,-2.2e-4 -0.003,-2.9e-4 -0.004,-6e-5 z m -11.64053,0.0675 c -0.0108,-1.2e-4 -0.0219,8e-5 -0.0332,5.8e-4 -0.19679,0.008 -0.304,0.1181 -0.47362,0.4873 -0.0831,0.18095 -0.11882,0.37068 -0.10764,0.57283 l 0.0167,0.30224 -0.72027,-0.0403 c -0.68044,-0.0381 -1.23616,-0.10701 -2.48918,-0.31144 v 0.13376 c 1.51752,0.24362 2.10621,0.28989 3.4482,0.32624 l 0.17904,0.005 0.0626,0.60295 c 0.0344,0.33165 0.0789,0.60184 0.0988,0.60043 0.0199,-10e-4 0.0473,0.1378 0.0611,0.30926 0.024,0.29991 0.0195,0.31322 -0.11885,0.35241 l -0.14379,0.0408 -0.0543,-0.30868 c -0.0794,-0.45118 -0.10296,-0.77431 -0.0601,-0.82367 0.10072,-0.11605 -0.0467,-0.16188 -0.5621,-0.17479 -0.81007,-0.0203 -0.78034,-0.0172 -0.73289,-0.0763 0.0224,-0.0279 0.0548,-0.0932 0.0721,-0.14526 0.0184,-0.0551 0.049,-0.0794 0.0735,-0.0582 0.0231,0.02 0.12895,0.0336 0.23533,0.0301 0.10639,-0.003 0.20684,0.005 0.2232,0.0195 0.0371,0.0322 0.46877,0.0185 0.49855,-0.0158 0.0381,-0.0439 -0.22571,-0.0857 -0.62241,-0.0986 -0.28603,-0.009 -0.41331,0.0149 -0.5005,0.0951 -0.0959,0.0882 -0.13104,0.0914 -0.19554,0.0175 -0.0433,-0.0495 -0.0947,-0.0716 -0.11425,-0.0491 -0.0196,0.0226 0.004,0.0554 0.0526,0.073 0.0587,0.0214 0.0654,0.0391 0.02,0.0533 -0.0922,0.0288 -0.26878,-0.15588 -0.18947,-0.19814 0.0372,-0.0198 0.0311,-0.0435 -0.0156,-0.0604 -0.0429,-0.0156 -0.12145,0.0235 -0.17809,0.0888 -0.061,0.0703 -0.11876,0.097 -0.14531,0.0671 -0.0951,-0.10693 -0.15035,-0.12077 -0.17798,-0.0447 -0.0351,0.0967 -0.19785,-0.0237 -0.18004,-0.13324 0.008,-0.0497 0.0267,-0.043 0.0615,0.0222 0.0275,0.0515 0.0483,0.07 0.0462,0.041 -0.002,-0.029 0.0423,-0.0609 0.0985,-0.0709 0.12047,-0.0214 0.13226,-0.0187 -0.53605,-0.12563 -0.16796,-0.0269 -0.43617,-0.072 -0.70383,-0.1176 v 0.0777 c 0.13115,0.0233 0.23305,0.0477 0.2489,0.0615 0.0216,0.0187 0.12576,0.0279 0.23144,0.0205 0.24023,-0.017 0.29912,0.0978 0.0818,0.15934 -0.083,0.0235 -0.1496,0.0616 -0.14797,0.0847 0.002,0.023 -0.046,0.0378 -0.10588,0.0328 -0.09,-0.007 -0.10862,-0.0345 -0.10794,-0.15645 5.9e-4,-0.0811 -0.0123,-0.12743 -0.0284,-0.10305 -0.056,0.085 -0.10421,0.11481 -0.1719,0.10151 v 0.26458 c 0.17926,0.0315 0.41002,0.0585 0.71296,0.0859 0.14213,0.0128 0.35028,0.0425 0.46248,0.0658 0.17691,0.0368 0.94582,0.10768 1.21906,0.11242 0.0511,8.8e-4 0.27629,0.009 0.50038,0.0173 l 0.40747,0.0157 0.006,0.16164 c 0.003,0.0889 0.0418,0.34493 0.0854,0.56888 l 0.0791,0.40718 -0.41455,0.0596 c -0.22801,0.0328 -0.63658,0.09 -0.90797,0.12715 -0.38174,0.0523 -0.48108,0.0841 -0.43866,0.14043 0.0302,0.0401 0.13014,0.06 0.22213,0.0444 0.32626,-0.0556 0.89618,-0.14141 1.20963,-0.18216 0.17481,-0.0227 0.41309,-0.0581 0.52956,-0.0786 l 0.21182,-0.0374 0.016,0.27283 c 0.009,0.15005 -1.2e-4,0.29147 -0.0199,0.31421 -0.0197,0.0228 -0.14979,0.0371 -0.28904,0.032 -0.13923,-0.005 -0.48487,0.0293 -0.76808,0.0766 -0.42419,0.0709 -0.50057,0.0984 -0.43376,0.15634 0.053,0.046 0.26808,0.0393 0.61999,-0.0193 0.29642,-0.0493 0.54201,-0.087 0.54572,-0.0838 0.004,0.003 0.0253,0.17761 0.0479,0.38755 0.0226,0.20993 0.0664,0.42306 0.0973,0.47361 0.0622,0.10167 0.01,0.10365 1.27283,-0.0486 1.04111,-0.12549 1.28422,-0.14046 0.78866,-0.0486 -0.38215,0.0709 -0.40059,0.0808 -0.54472,0.2937 -0.082,0.12119 -0.22145,0.30388 -0.30973,0.406 -0.13707,0.15854 -0.15829,0.22475 -0.14549,0.4531 0.0113,0.20108 0.0444,0.28741 0.13335,0.34811 0.10122,0.069 0.14175,0.0607 0.28014,-0.0576 l 0.16182,-0.13824 -0.14066,0.17409 c -0.17852,0.22101 -0.11228,0.28856 0.20373,0.20786 0.16297,-0.0416 0.28059,-0.11156 0.38013,-0.22626 0.13951,-0.16076 0.21003,-0.17481 2.21051,-0.43977 2.67669,-0.35454 2.56005,-0.33655 2.71401,-0.41921 0.17559,-0.0943 0.4808,-0.44992 0.56293,-0.65595 0.0968,-0.24292 0.004,-0.42481 -0.3507,-0.68373 -0.21553,-0.15751 -0.34218,-0.21619 -0.46666,-0.21617 -0.39778,7e-5 -0.686,0.18459 -0.68078,0.43571 0.002,0.11615 -0.0117,0.12938 -0.18092,0.17031 -0.29946,0.0724 -1.04948,0.0775 -1.12993,0.008 -0.10267,-0.0891 -0.0343,-0.21785 0.22408,-0.42198 0.20624,-0.16293 0.30064,-0.1823 1.60437,-0.33007 1.3728,-0.15559 1.38689,-0.15866 1.57218,-0.3448 0.10283,-0.10331 0.20347,-0.23175 0.22366,-0.28539 0.0545,-0.14481 -0.13129,-0.95127 -0.24111,-1.04657 -0.0522,-0.0453 -0.16397,-0.0917 -0.24848,-0.1031 l -0.15363,-0.0208 0.1696,-0.19548 0.16961,-0.19548 -0.13659,-0.58516 c -0.0751,-0.32183 -0.16601,-0.61066 -0.20197,-0.64186 -0.036,-0.0312 -0.75756,0.001 -1.60349,0.0717 -0.84592,0.0706 -1.55338,0.11432 -1.57218,0.0971 -0.0188,-0.0172 -0.0485,-0.10502 -0.0661,-0.19519 -0.0176,-0.0902 -0.0553,-0.18491 -0.0839,-0.21057 -0.0286,-0.0257 -0.93052,-0.01 -2.00424,0.0355 -1.66862,0.0702 -1.95795,0.0671 -1.9918,-0.0216 -0.0575,-0.15061 -0.15097,-0.21672 -0.3125,-0.21848 z m 0.0209,0.0795 c 0.08,0.004 0.15224,0.0431 0.17975,0.11514 0.0208,0.0546 0.0668,0.12436 0.10222,0.1551 0.0354,0.0307 0.48093,0.0346 0.98997,0.009 1.51227,-0.0772 2.28683,-0.1131 2.63874,-0.12215 l 0.3319,-0.008 0.0625,0.19625 c 0.0344,0.10796 0.0879,0.21842 0.11884,0.24541 0.0309,0.027 0.74667,0.002 1.59052,-0.0561 0.84384,-0.0579 1.54487,-0.10003 1.55785,-0.0937 0.013,0.006 0.0788,0.25994 0.14632,0.56364 l 0.12262,0.5522 -0.18658,0.21505 c -0.13936,0.16059 -0.1679,0.21889 -0.11254,0.23003 0.0408,0.008 -0.0441,0.0267 -0.1887,0.0411 -0.14457,0.0144 -0.27165,0.0186 -0.28238,0.009 -0.0107,-0.009 0.0785,-0.026 0.19819,-0.037 0.11973,-0.011 0.19865,-0.0366 0.17538,-0.0568 -0.0232,-0.0202 -0.24118,-0.0134 -0.48434,0.0151 -0.87254,0.10219 -2.17466,0.18557 -2.22437,0.14243 -0.11474,-0.0996 -0.008,-0.13888 0.53204,-0.1956 0.31227,-0.0328 0.58172,-0.0757 0.59883,-0.0954 0.0327,-0.0377 -1.11851,0.0646 -1.19619,0.10629 -0.0727,0.039 -0.0554,0.20127 0.0335,0.31409 0.0148,0.0188 0.0367,0.0333 0.0725,0.0439 -0.002,-0.005 2.4e-4,-0.0111 0.007,-0.0188 0.007,-0.008 0.0656,-0.0124 0.12987,-0.009 0.10591,0.005 0.10608,0.008 0.002,0.028 -0.0343,0.007 -0.0621,0.0102 -0.0842,0.0113 0.16946,0.0235 0.55018,-0.002 1.47915,-0.0819 1.66052,-0.14335 1.70341,-0.1373 1.75824,0.24812 0.0157,0.11024 0.0518,0.2904 0.0802,0.40046 0.0636,0.24625 0.0571,0.26358 -0.17856,0.47574 -0.15674,0.14112 -0.25018,0.17614 -0.53269,0.19967 -0.18842,0.0157 -0.70166,0.0775 -1.14054,0.1373 -0.43887,0.0598 -0.91044,0.11434 -1.04792,0.12121 -0.21926,0.011 -0.24968,-3e-4 -0.24766,-0.0923 0.002,-0.0889 0.0834,-0.11176 0.53805,-0.15098 0.29466,-0.0254 0.54924,-0.0634 0.56576,-0.0845 0.0444,-0.0566 -1.10563,0.0759 -1.15651,0.13323 -0.0238,0.0269 -0.0269,0.10224 -0.007,0.16748 0.02,0.0652 0.005,0.15425 -0.0335,0.1979 -0.0588,0.0667 -0.0683,0.0641 -0.0598,-0.0163 0.008,-0.0707 -0.0132,-0.0546 -0.0797,0.0615 -0.0621,0.10863 -0.0961,0.13715 -0.11006,0.0924 -0.0127,-0.0405 -0.0314,-0.034 -0.0501,0.0175 -0.0164,0.0452 -0.0496,0.065 -0.0738,0.044 -0.0242,-0.021 -0.0673,-0.0113 -0.0957,0.0215 -0.0284,0.0328 -0.0259,0.082 0.006,0.1093 0.0315,0.0273 0.0521,0.0814 0.0458,0.1202 -0.008,0.0466 -0.0196,0.0444 -0.0355,-0.007 -0.014,-0.0447 -0.0281,-0.0532 -0.0334,-0.0202 -0.005,0.0314 0.0438,0.11082 0.10871,0.17644 0.10322,0.10435 0.2001,0.11441 0.77179,0.0802 0.35956,-0.0215 0.67315,-0.0615 0.69681,-0.0887 0.0237,-0.0273 0.0395,-0.0996 0.0351,-0.16088 -0.0148,-0.20848 0.18585,-0.363 0.50026,-0.38525 0.27943,-0.0198 0.29662,-0.0131 0.56417,0.21907 0.24392,0.21169 0.27676,0.2607 0.28314,0.42227 0.006,0.15567 -0.0277,0.22301 -0.22826,0.45411 -0.15563,0.17933 -0.28455,0.28521 -0.38012,0.31226 -0.0795,0.0225 -0.75874,0.11932 -1.5094,0.21512 -0.75065,0.0958 -1.78033,0.23121 -2.28815,0.30094 -0.92142,0.12654 -0.92369,0.12727 -1.12827,0.33915 -0.1231,0.1275 -0.23051,0.20163 -0.26888,0.18558 -0.0357,-0.0149 -0.0358,-0.0587 -1.2e-4,-0.0991 0.054,-0.0611 0.0618,-0.0579 0.0506,0.0207 -0.01,0.0707 0.0136,0.0624 0.0984,-0.0344 0.0833,-0.0951 0.0922,-0.1344 0.0349,-0.15522 -0.0473,-0.0172 -0.14402,0.0382 -0.25231,0.14461 l -0.17556,0.17255 0.13942,-0.17514 c 0.0994,-0.12489 0.12228,-0.18995 0.0798,-0.22685 -0.0328,-0.0285 -0.0796,-0.0299 -0.10393,-0.003 -0.0246,0.027 -0.0355,0.002 -0.0245,-0.0561 0.0301,-0.15891 -0.0811,-0.22129 -0.18369,-0.10304 -0.0501,0.0577 -0.0963,0.0761 -0.10671,0.0426 -0.0101,-0.0325 0.011,-0.0928 0.0469,-0.13418 0.0359,-0.0413 0.0519,-0.11211 0.0356,-0.15728 -0.0187,-0.0519 0.0461,-0.18986 0.17573,-0.37428 l 0.20533,-0.29211 0.40806,-0.0806 c 0.50849,-0.10045 0.96468,-0.17437 1.39156,-0.22543 0.18127,-0.0217 0.34678,-0.0589 0.3678,-0.0826 0.0594,-0.0671 0.0155,-0.29371 -0.0708,-0.3655 -0.0625,-0.052 -0.0665,-0.0345 -0.0199,0.0895 0.0318,0.0848 0.038,0.17703 0.0137,0.20504 -0.0558,0.0643 -0.40709,0.0795 -0.54294,0.0236 -0.0565,-0.0233 -0.73113,0.0376 -1.4992,0.13511 -0.94758,0.12037 -1.42246,0.15486 -1.47727,0.10729 -0.061,-0.0529 -0.0925,-0.0464 -0.12858,0.0266 -0.0669,0.13541 -0.11153,-0.002 -0.13535,-0.4165 -0.0163,-0.28388 -0.003,-0.33317 0.097,-0.37151 0.16001,-0.0611 0.21909,0.0752 0.0947,0.21853 -0.0549,0.0632 -0.0819,0.13042 -0.0601,0.14939 0.0218,0.019 0.0909,-0.0244 0.15339,-0.0964 0.10229,-0.11787 0.10179,-0.21038 -0.005,-0.92749 -0.0652,-0.43809 -0.14152,-0.99145 -0.16955,-1.22967 -0.0672,-0.57104 -0.18804,-1.27272 -0.22413,-1.30147 -0.0158,-0.0126 -0.0167,0.079 -0.002,0.20367 l 0.0268,0.22662 -0.16795,-0.0144 -0.16796,-0.0143 -0.009,-0.30082 c -0.009,-0.30019 0.12155,-0.68822 0.30225,-0.89814 0.0583,-0.0677 0.14599,-0.0987 0.22596,-0.0946 z m 4.83121,2.29947 c -0.0213,-0.003 -0.0393,-0.007 -0.0546,-0.0113 0.004,0.009 0.0228,0.0129 0.0546,0.0113 z m 5.2161,-2.12226 c -0.0185,0.005 -0.0223,0.17356 -0.008,0.39368 0.007,0.1038 0.0104,0.1987 0.0117,0.27707 l 0.0347,0.24789 c 0.0481,-0.0994 0.0445,-0.20167 0.0295,-0.46111 -0.0134,-0.23194 -0.0422,-0.43726 -0.0641,-0.45623 -0.001,-0.001 -0.003,-0.001 -0.004,-0.001 z m 13.24266,0.18812 c -0.007,2.2e-4 -0.0136,5.8e-4 -0.0206,10e-4 -0.21793,0.0245 -1.5487,0.45759 -1.98166,0.64493 -0.87948,0.38057 -1.34927,0.47131 -2.20113,0.42516 l -0.37134,-0.02 -0.0285,-0.19395 c -0.0421,-0.28592 -0.0731,-0.2691 -0.0608,0.0331 0.0166,0.40849 0.0624,0.73453 0.11778,0.83906 0.0765,0.14423 0.14341,0.61884 0.0953,0.67588 -0.0233,0.0277 -0.0226,0.0675 0.001,0.0884 0.0242,0.021 0.0581,0.12763 0.0753,0.23698 0.0249,0.15781 0.0572,0.20827 0.15664,0.24471 0.0992,0.0364 0.14242,0.10335 0.20792,0.32217 0.096,0.32086 0.0726,0.42239 -0.12197,0.52744 -0.0776,0.0419 -0.12674,0.0887 -0.10912,0.104 0.0452,0.0392 0.17187,-0.0359 0.28975,-0.17173 0.0824,-0.0949 0.085,-0.1697 0.0147,-0.41697 -0.0471,-0.16571 -0.0769,-0.30932 -0.0661,-0.31916 0.0108,-0.01 0.35662,-0.0206 0.76856,-0.0239 0.71914,-0.006 1.71333,-0.0215 2.29693,-0.0364 0.15945,-0.004 0.29472,-0.0401 0.3191,-0.0849 0.0299,-0.055 -0.48569,-0.0679 -1.76035,-0.0437 -0.99149,0.0188 -1.817,0.0217 -1.83452,0.006 -0.0778,-0.0675 0.0572,-0.0991 0.38885,-0.0909 0.53604,0.0132 0.86535,-0.004 0.82072,-0.0426 -0.0219,-0.019 -0.19842,-0.0323 -0.39238,-0.0295 -0.19396,0.003 -0.36458,-0.005 -0.37918,-0.0162 -0.0146,-0.0116 -0.13232,-0.0173 -0.26157,-0.0125 -0.17836,0.007 -0.23214,-0.0107 -0.22325,-0.0717 0.008,-0.0547 0.0918,-0.0779 0.26175,-0.0725 1.17404,0.0374 3.72693,-0.0155 3.78151,-0.0784 0.0242,-0.0278 0.0302,-0.0618 0.0133,-0.0755 -0.0168,-0.0137 -0.40031,-0.0145 -0.85215,-0.001 -1.00631,0.0287 -2.68907,0.0348 -3.02268,0.011 -0.2307,-0.0164 -0.24808,-0.0262 -0.28126,-0.15764 -0.0689,-0.27317 -0.096,-0.46872 -0.0645,-0.46654 0.36791,0.0256 1.18597,0.0129 1.36609,-0.0212 0.13103,-0.0248 0.6663,-0.21185 1.18946,-0.41573 0.88184,-0.34364 2.10063,-0.74253 2.38548,-0.78069 0.1109,-0.0149 0.11495,-0.0221 0.0457,-0.0817 -0.0418,-0.036 -0.16485,-0.041 -0.27354,-0.011 -0.58079,0.16009 -1.25557,0.36912 -1.55273,0.48092 -0.18481,0.0695 -0.36801,0.12175 -0.40705,0.11602 -0.0391,-0.006 -0.0577,0.002 -0.0413,0.0164 0.0324,0.0293 -0.93753,0.44154 -0.97088,0.4126 -0.0192,-0.0167 0.20034,-0.12136 0.42947,-0.20492 0.0557,-0.0203 0.10548,-0.0633 0.11071,-0.0955 0.005,-0.0322 0.0246,-0.0455 0.043,-0.0295 0.0482,0.0418 0.36575,-0.0724 0.36167,-0.12999 -0.002,-0.0266 0.0452,-0.0449 0.1047,-0.0408 0.0595,0.004 0.22075,-0.0359 0.35837,-0.0889 0.13762,-0.053 0.37178,-0.13983 0.5203,-0.19295 0.14853,-0.0531 0.25113,-0.11301 0.22803,-0.13306 -0.0231,-0.0201 -0.0931,-0.009 -0.15563,0.0245 -0.0625,0.0336 -0.16305,0.06 -0.22337,0.0587 -0.0603,-0.001 -0.12358,0.0136 -0.1406,0.0332 -0.017,0.0196 -0.14531,0.0691 -0.28503,0.10994 -0.44666,0.13055 -0.84185,0.29675 -0.85185,0.35825 -0.005,0.0328 -0.0273,0.0444 -0.0489,0.0257 -0.0423,-0.0367 -0.35583,0.0782 -0.42222,0.15476 -0.0548,0.0632 -0.64418,0.11728 -0.87059,0.0799 -0.10057,-0.0166 -0.24772,-0.0277 -0.32695,-0.0247 -0.43627,0.0164 -0.65703,-0.0139 -0.70046,-0.0963 -0.0401,-0.076 -0.0197,-0.0865 0.15781,-0.0813 1.15874,0.034 1.44362,-0.0153 2.41254,-0.41755 0.29441,-0.12223 0.88029,-0.3274 1.30194,-0.45599 0.42166,-0.12859 0.76538,-0.25173 0.76384,-0.2736 -0.001,-0.0191 -0.0378,-0.0312 -0.0846,-0.0297 z m -4.72527,0.23421 c -0.004,2.3e-4 -0.006,0.0268 -0.008,0.0798 -0.003,0.0643 8.8e-4,0.12277 0.009,0.12993 0.0327,0.0284 0.04,-0.0226 0.0189,-0.13193 -0.0101,-0.0521 -0.0158,-0.078 -0.0196,-0.0778 z m 5.0399,0.0142 c -0.0149,-8.8e-4 -0.0404,0.003 -0.078,0.0111 -0.0689,0.0146 -0.13945,0.0416 -0.1567,0.0601 -0.0172,0.0185 0.0148,0.0346 0.0712,0.0358 0.0564,0.001 0.12687,-0.0258 0.15663,-0.0601 0.0271,-0.0312 0.0317,-0.0456 0.007,-0.0469 z m -0.70524,0.21476 c -0.0139,5.9e-4 -0.0306,0.003 -0.0468,0.009 -0.0325,0.0101 -0.0401,0.0349 -0.017,0.0549 0.0231,0.0201 0.0576,0.0186 0.0766,-0.003 0.019,-0.0219 0.0266,-0.0466 0.0169,-0.0549 -0.005,-0.004 -0.0158,-0.006 -0.0297,-0.005 z m -15.56453,0.26729 c -0.004,2.3e-4 -0.006,0.0268 -0.008,0.0798 -0.003,0.0643 8.8e-4,0.12271 0.009,0.12987 0.0327,0.0284 0.04,-0.0225 0.0189,-0.13188 -0.0101,-0.0521 -0.0158,-0.0781 -0.0196,-0.0778 z m -2.26469,0.0723 c -0.0606,5.9e-4 -0.10012,0.003 -0.10405,0.008 -0.0339,0.0392 0.20905,0.0596 0.42215,0.0354 0.22331,-0.0254 0.22002,-0.0268 -0.088,-0.0391 -0.088,-0.004 -0.16952,-0.005 -0.23009,-0.004 z m 4.42361,0.0126 c -0.0753,0.097 -0.0802,0.14165 -0.0372,0.2045 0.0362,0.0529 0.0351,0.10723 -0.002,0.12728 -0.0383,0.0204 -0.0343,0.54364 0.009,1.25308 0.0413,0.66994 0.0889,1.23005 0.10576,1.2447 0.0169,0.0147 0.14326,0.0479 0.28085,0.0739 0.13758,0.0259 0.41031,0.13352 0.60608,0.23911 0.19577,0.10558 0.39618,0.19344 0.44532,0.19524 0.14808,0.005 0.50813,-0.16102 0.64216,-0.29688 0.1064,-0.10785 0.19774,-0.12573 0.5927,-0.11584 0.25681,0.006 0.50452,-0.014 0.55049,-0.0454 0.046,-0.0315 0.0907,-0.0345 0.0994,-0.007 0.0283,0.0909 0.33756,0.10001 0.38142,0.0112 0.0291,-0.0588 0.0562,-0.0615 0.0921,-0.009 0.028,0.0409 0.18501,0.0805 0.34894,0.088 0.29719,0.0135 0.29813,0.0139 0.31339,0.16318 0.0235,0.22998 0.12107,0.27437 0.63944,0.2908 0.26353,0.008 0.55904,0.0219 0.65672,0.03 0.0977,0.008 0.62978,0.0289 1.1824,0.0461 1.3512,0.0421 1.32722,0.0379 1.46548,0.25603 0.15237,0.24038 0.19191,0.26762 0.26546,0.18287 0.0373,-0.043 0.027,-0.22718 -0.0255,-0.45228 -0.0487,-0.20882 -0.0841,-0.38477 -0.0786,-0.39102 0.005,-0.006 0.1004,-0.0164 0.21111,-0.0225 0.47208,-0.0262 -0.16948,-0.0631 -2.73318,-0.1574 -0.38526,-0.0142 -0.40262,-0.0204 -0.44184,-0.15882 -0.0371,-0.13116 -0.0549,-0.14607 -0.19767,-0.16542 -0.0863,-0.0117 -0.15536,1.2e-4 -0.15351,0.0263 0.002,0.0262 0.0427,0.0357 0.0909,0.0211 0.0759,-0.023 0.0962,-0.002 0.15227,0.15528 0.0761,0.21369 0.006,0.20144 1.38636,0.24141 0.4568,0.0132 0.99324,0.0298 1.19212,0.0368 l 0.36167,0.0127 0.0934,0.37493 c 0.0514,0.2062 0.0891,0.37996 0.0837,0.38619 -0.005,0.006 -0.0534,-0.0556 -0.10664,-0.13747 -0.0533,-0.0819 -0.1268,-0.17479 -0.16342,-0.20657 -0.0648,-0.0563 -0.97696,-0.12236 -2.03052,-0.14714 -0.61245,-0.0144 -1.51466,-0.0599 -1.62436,-0.082 -0.0438,-0.009 -0.0905,-0.0869 -0.10859,-0.1814 -0.0426,-0.2223 -0.0816,-0.24721 -0.38943,-0.2493 -0.23284,-0.001 -0.28678,-0.0238 -0.46242,-0.19054 -0.16942,-0.16078 -0.21178,-0.17973 -0.28668,-0.12845 -0.0354,0.0242 -0.0565,0.0381 -0.0713,0.0354 l -0.16359,0.22655 -0.0419,0.005 c -0.008,0.004 -0.0132,0.004 -0.0149,0.002 l -0.23351,0.0292 -0.0594,-0.004 c 0.006,0.005 0.009,0.008 0.007,0.009 -0.14672,0.002 -0.37979,-0.0212 -0.5387,-0.0486 l -0.23598,-0.0178 c -0.004,0.019 -0.008,0.0433 -0.0121,0.0749 -0.0193,0.14223 -0.0377,0.16295 -0.24347,0.273 -0.30506,0.1632 -0.41579,0.15412 -0.81159,-0.0668 -0.35719,-0.19942 -0.50087,-0.25014 -0.70747,-0.2496 -0.11448,3e-4 -0.12889,-0.0833 -0.19897,-1.15563 -0.0289,-0.4423 -0.0426,-0.83711 -0.039,-1.05004 z m -4.5869,0.0745 c -0.0236,0.002 -0.0311,0.0425 -0.0166,0.0908 0.038,0.12622 0.0546,0.12927 0.0572,0.0104 0.001,-0.0573 -0.0171,-0.10289 -0.0407,-0.10122 z m 5.20442,0.0227 0.0147,0.10505 -0.027,0.0432 c 5.8e-4,0.005 10e-4,0.009 0.002,0.0148 0.009,0.0775 -0.002,0.16255 -0.0246,0.189 -0.0767,0.0883 -0.0598,0.39961 0.0257,0.47379 0.0546,0.0473 0.0918,0.28307 0.10547,0.66633 0.0118,0.33162 0.0493,0.59115 0.085,0.58869 0.082,-0.006 -0.028,-1.07254 -0.13718,-1.32983 -0.0456,-0.1074 -0.0578,-0.23531 -0.0273,-0.28591 0.0682,-0.11341 0.0638,-0.3975 -0.007,-0.45912 -0.003,-0.003 -0.006,-0.004 -0.009,-0.006 z m -3.7034,0.0888 c -0.0439,2.3e-4 -0.0781,0.004 -0.0835,0.0103 -0.0284,0.0327 0.0225,0.0399 0.13187,0.0188 0.10414,-0.0201 0.10393,-0.0227 -0.002,-0.028 -0.0161,-8.8e-4 -0.0318,-0.001 -0.0464,-0.001 z m -8.80732,0.17396 c -0.008,-5.8e-4 -0.0164,3e-4 -0.0246,0.003 -0.033,0.0103 -0.0321,0.0429 0.002,0.0725 0.0698,0.0606 0.10084,0.0457 0.0753,-0.0363 -0.007,-0.0227 -0.0284,-0.0375 -0.0526,-0.0392 z m -0.57183,0.009 c 0.0777,5.8e-4 0.10708,0.0292 0.15304,0.12981 0.0538,0.1177 0.0884,0.1387 0.24135,0.14637 0.0982,0.005 0.21516,-0.0115 0.25992,-0.0366 0.048,-0.0269 0.12658,-0.008 0.19159,0.0468 l 0.11018,0.0923 -0.17933,-0.013 c -0.32462,-0.0235 -0.92058,-0.11819 -0.86105,-0.13677 0.0321,-0.01 0.0275,-0.0632 -0.0103,-0.11837 -0.0647,-0.0945 -0.0613,-0.10073 0.0581,-0.10918 0.0133,-8.8e-4 0.0253,-10e-4 0.0364,-10e-4 z m -0.31026,0.17744 c 0.0213,-5.9e-4 0.0465,0.003 0.0705,0.0119 0.0727,0.0264 0.0701,0.0344 -0.0158,0.0485 -0.11708,0.0193 -0.14633,0.006 -0.10198,-0.0446 0.008,-0.01 0.026,-0.0151 0.0473,-0.0158 z m 3.04373,0.01 c -0.0131,5.8e-4 -0.0285,0.009 -0.0433,0.0264 -0.0296,0.0341 -0.0738,0.0445 -0.0984,0.0232 -0.031,-0.0269 -0.0453,-0.008 -0.0469,0.0631 -0.001,0.056 0.0221,0.10575 0.0519,0.11059 0.0735,0.012 0.18835,-0.12674 0.16554,-0.19984 -0.005,-0.0162 -0.0157,-0.024 -0.0288,-0.0235 z m 19.35224,0.0516 c 0.0459,5.8e-4 0.0628,0.0176 0.0576,0.0523 -0.007,0.0493 0.003,0.0613 0.0276,0.0333 0.0215,-0.0241 0.15787,-0.0283 0.30307,-0.009 0.1452,0.019 0.44802,0.0189 0.67287,-1.2e-4 0.22486,-0.0191 0.35781,-0.0163 0.29547,0.006 -0.18091,0.0654 -0.5957,0.10709 -1.04521,0.10499 -0.45995,-0.002 -0.60365,-0.0227 -0.60821,-0.0871 -0.002,-0.0236 0.08,-0.0614 0.18146,-0.0841 0.0499,-0.0111 0.0878,-0.0166 0.11537,-0.0163 z m -12.42453,0.31362 c 0.0249,2.9e-4 0.0399,0.002 0.0427,0.004 0.0109,0.009 -0.17945,0.0324 -0.42304,0.0509 -0.2436,0.0185 -0.45184,0.0259 -0.46277,0.0164 -0.0109,-0.009 0.17944,-0.0324 0.42304,-0.0509 0.18269,-0.0139 0.34549,-0.0215 0.42009,-0.0205 z m 0.80032,0.46424 c -0.0198,5.9e-4 -0.0193,0.0449 5.9e-4,0.13636 l 0.0386,0.1765 -0.83877,0.0832 c -0.46131,0.0458 -0.85185,0.0984 -0.86788,0.11684 -0.0323,0.0372 1.54769,-0.0976 1.68077,-0.14331 0.10025,-0.0345 0.10921,-0.27592 0.0132,-0.35595 -0.0111,-0.009 -0.0199,-0.0139 -0.0265,-0.0136 z m 9.06553,0.098 c -0.0381,2.3e-4 -0.0641,0.003 -0.0688,0.009 -0.01,0.0109 0.0695,0.0282 0.17562,0.0384 0.10609,0.0102 0.20062,0.01 0.2101,-0.001 0.009,-0.0109 -0.0695,-0.0283 -0.17561,-0.0385 -0.053,-0.005 -0.10322,-0.008 -0.14131,-0.007 z m -10.97314,0.10552 c -0.014,2.3e-4 -0.0292,5.9e-4 -0.0456,10e-4 -0.12266,0.006 -0.22826,0.017 -0.23463,0.0244 -0.0338,0.0389 0.30238,0.0474 0.37369,0.009 0.0431,-0.023 0.004,-0.0365 -0.0935,-0.0353 z m -0.56022,0.11861 c -0.0236,0.002 -0.0311,0.0425 -0.0166,0.0908 0.038,0.12622 0.0546,0.12927 0.0572,0.0104 0.001,-0.0573 -0.0171,-0.10289 -0.0407,-0.10122 z m 16.31316,0.0706 c -0.0264,-10e-4 -0.0692,0.003 -0.13152,0.011 -0.14891,0.0195 -0.14902,0.0197 -0.0196,0.0502 0.0716,0.0169 0.14512,0.0134 0.16342,-0.008 0.0306,-0.0353 0.0317,-0.0516 -0.0123,-0.0535 z m 0.35931,0.001 c -0.0977,-2.3e-4 -0.18088,0.006 -0.21016,0.0202 -0.0809,0.0402 -0.007,0.0558 0.33059,0.0704 0.13623,0.006 0.28011,-0.007 0.31982,-0.0278 0.0605,-0.0322 -0.22525,-0.0623 -0.44025,-0.0628 z m 0.70193,0.0222 c -0.0692,5.9e-4 -0.10949,0.0115 -0.0919,0.0268 0.0532,0.0462 0.28905,0.0593 0.28586,0.0159 -0.001,-0.0203 -0.0747,-0.0393 -0.16259,-0.0422 -0.011,-3e-4 -0.0215,-5.9e-4 -0.0314,-5.9e-4 z m -1.49713,0.007 c -0.0189,2.3e-4 -0.0386,10e-4 -0.058,0.004 -0.0775,0.009 -0.12848,0.0279 -0.11324,0.0411 0.0152,0.0132 0.0972,0.0215 0.18204,0.0186 0.0849,-0.003 0.13578,-0.0215 0.11318,-0.0411 -0.0169,-0.0147 -0.0672,-0.0231 -0.12397,-0.0224 z m -0.32276,0.0452 c -0.0719,5.9e-4 -0.17334,0.0272 -0.21022,0.067 -0.0191,0.0206 0.0385,0.0324 0.1281,0.026 0.0896,-0.006 0.1612,-0.0351 0.15917,-0.0639 -0.001,-0.0207 -0.0339,-0.0296 -0.077,-0.0292 z m -15.34069,0.0224 c -0.0139,5.8e-4 -0.0272,0.006 -0.0367,0.0173 -0.019,0.0219 -0.0266,0.0466 -0.0169,0.055 0.01,0.008 0.044,0.007 0.0765,-0.003 0.0325,-0.0101 0.0402,-0.0349 0.017,-0.055 -0.0116,-0.0101 -0.026,-0.0147 -0.0399,-0.0141 z m 8.0163,0.66332 c -0.0114,-2.9e-4 -0.0212,-2.9e-4 -0.0289,1.2e-4 -0.0102,5.9e-4 -0.0167,0.002 -0.0186,0.004 -0.0371,0.0428 0.0711,0.0713 0.20391,0.0536 l 0.15003,-0.0199 -0.17037,-0.0245 c -0.0527,-0.008 -0.10186,-0.0122 -0.13612,-0.0133 z m 1.02087,0.0175 -0.23051,0.005 c -0.12675,0.003 -0.23529,0.0103 -0.24123,0.0171 -0.0266,0.0307 0.0296,0.0321 0.24289,0.006 z m -14.57963,0.003 c -0.0546,3e-4 -0.14028,0.007 -0.25791,0.0213 -0.18617,0.0228 -0.51932,0.0603 -0.74038,0.0832 -0.22105,0.0229 -0.41212,0.0534 -0.42462,0.0679 -0.0956,0.11015 0.32048,0.0906 1.10422,-0.0518 0.36724,-0.0667 0.48251,-0.12167 0.31869,-0.12061 z m 14.78507,0.001 c -0.0564,-0.001 -0.10791,0.004 -0.11448,0.0115 -0.007,0.008 0.0238,0.0268 0.0675,0.0427 0.0437,0.0159 0.0952,0.0106 0.11448,-0.0115 0.0202,-0.0233 -0.008,-0.0413 -0.0675,-0.0426 z m -16.1498,0.0237 c -0.078,0.002 -0.15742,0.0208 -0.17639,0.0427 -0.019,0.0219 0.0294,0.0385 0.10742,0.0369 0.078,-0.002 0.15741,-0.0209 0.17638,-0.0427 0.019,-0.0219 -0.0294,-0.0384 -0.10741,-0.0368 z m 14.63805,0.0145 h 6e-5 c 0.008,-5.9e-4 0.008,0.01 8.8e-4,0.0312 -0.0134,0.0387 -0.0445,0.0717 -0.0692,0.0735 -0.0247,0.002 -0.0137,-0.0299 0.0244,-0.0703 0.0211,-0.0223 0.036,-0.0338 0.0438,-0.0344 z m 5.75097,0.44325 c -0.0153,3e-4 -0.026,0.003 -0.0296,0.007 -0.009,0.0109 0.0351,0.0317 0.0992,0.0463 0.064,0.0145 0.12416,0.0175 0.13364,0.007 0.009,-0.0109 -0.0351,-0.0317 -0.0991,-0.0463 -0.04,-0.009 -0.0785,-0.0137 -0.10405,-0.0131 z m -16.98892,0.0324 c -0.10786,0.001 -0.32044,0.015 -0.58209,0.0394 -0.41865,0.039 -0.77624,0.0893 -0.79467,0.11159 -0.0413,0.05 1.29325,-0.0781 1.44579,-0.13877 0.0227,-0.009 -0.004,-0.0129 -0.069,-0.0122 z m 1.08871,0.47916 -0.22885,0.0278 c -0.12585,0.0153 -0.23439,0.023 -0.24123,0.0171 -0.0307,-0.0267 0.0248,-0.036 0.23958,-0.0403 z m -1.7363,0.92689 c 0.0117,-0.002 0.008,0.034 -0.0124,0.0913 -0.0245,0.0705 -0.0578,0.12913 -0.074,0.13028 -0.0372,0.003 0.0186,-0.15513 0.0758,-0.21423 0.004,-0.005 0.008,-0.007 0.0106,-0.007 z m -0.0405,0.39044 c 0.005,-2.3e-4 0.0131,0.001 0.0237,0.005 0.0387,0.0134 0.0718,0.0446 0.0735,0.0693 0.002,0.0247 -0.0299,0.0136 -0.0703,-0.0245 -0.0335,-0.0316 -0.0425,-0.0493 -0.0269,-0.05 z m 0.29948,0.13842 c 0.005,8.8e-4 0.003,0.0101 -0.006,0.0279 -0.0235,0.0474 -0.0707,0.1005 -0.10493,0.11796 -0.0342,0.0175 -0.015,-0.0213 0.0427,-0.0862 0.0361,-0.0405 0.0605,-0.0613 0.0681,-0.0597 z"
         style="fill:#000000;stroke:#000000;stroke-width:0.05262045" />
      <path
         inkscape:connector-curvature="0"
         d="m 121.98496,74.96507 v -0.4354 l 3.26555,0.10885 0.25398,0.30841 2.86643,0.12699 0.127,0.81639 -0.0907,0.0544 -0.36283,-0.36283 -3.55582,-0.27213 -0.25399,-0.36284 -1.14294,-0.127 z m -1.32436,-0.48983 1.1248,0.59868 -0.43541,0.23585 -0.9071,-0.38098 -0.36284,-0.0726 z m -0.21771,-3.46511 -0.5624,0.39912 0.23585,3.10227 0.54426,-0.30841 -0.0181,-0.83453 -0.10885,-0.52612 -0.0544,-0.67125 z"
         style="fill:url(#pattern2320);fill-opacity:1;stroke:#000000;stroke-width:0.0240428px;stroke-linecap:butt;stroke-linejoin:miter;stroke-opacity:1"
         id="path866" />
      <path
         inkscape:connector-curvature="0"
         id="path868"
         d="m 122.54736,73.31416 5.82356,0.32655 0.32655,-0.25399 -0.27212,-1.81419 -3.59211,-0.45355 -2.35845,0.14513"
         style="fill:none;stroke:#000000;stroke-width:0.07860291;stroke-linecap:butt;stroke-linejoin:miter;stroke-miterlimit:4;stroke-dasharray:none;stroke-opacity:1" />
      <path
         inkscape:connector-curvature="0"
         id="path870"
         d="m 123.05533,73.3323 -0.52611,0.0181 2.55801,-0.21771 3.59211,0.25399"
         style="fill:none;stroke:#000000;stroke-width:0.07860291;stroke-linecap:butt;stroke-linejoin:miter;stroke-miterlimit:4;stroke-dasharray:none;stroke-opacity:1" />
      <path
         inkscape:connector-curvature="0"
         id="path872"
         d="m 121.3137,70.62915 3.57397,0.29027 0.0363,-0.32656 0.32656,-0.18142 3.64653,0.19957 0.12699,0.0181 0.0726,0.58054 -0.23585,0.30842 0.30842,1.65091"
         style="fill:none;stroke:#000000;stroke-width:0.11282355;stroke-linecap:butt;stroke-linejoin:miter;stroke-miterlimit:4;stroke-dasharray:none;stroke-opacity:1" />
      <path
         inkscape:connector-curvature="0"
         d="m 111.81773,77.09848 0.891,-0.48861 5.00107,-0.80477 -0.45987,0.54609 -4.68491,0.60358 -0.60358,0.3449 -0.31616,0.0287 z m 3.33405,-3.96636 2.75921,-0.28742 0.43113,-0.45987 -2.93166,0.31616 -0.43113,0.14371 v 0.17245 z m 0.25868,1.26463 3.13285,-0.43112 -0.3449,0.48861 -2.75921,0.31616 -0.11497,-0.22994 z m -4.65617,0.86226 -0.43113,0.57483 3.5065,-0.37364 0.3449,0.0287 -0.17245,-0.37364 -0.28742,-0.17246 z m -0.86225,-2.2706 0.43112,2.44305 0.28742,-0.31616 -0.40238,-3.01789 -0.0575,0.77603 z"
         style="fill:url(#pattern2338);fill-opacity:1;stroke:#000000;stroke-width:0.0240428px;stroke-linecap:butt;stroke-linejoin:miter;stroke-opacity:1"
         id="path2331" />
      <text
         id="text2342"
         y="80.427612"
         x="107.23518"
         style="font-style:normal;font-variant:normal;font-weight:normal;font-stretch:normal;font-size:2.03145313px;line-height:1.25;font-family:'Helvetica Neue LT Com';-inkscape-font-specification:'Helvetica Neue LT Com';letter-spacing:0px;word-spacing:0px;fill:#000000;fill-opacity:1;stroke:none;stroke-width:0.05078633"
         xml:space="preserve"><tspan
           style="font-style:normal;font-variant:normal;font-weight:normal;font-stretch:normal;font-family:'Helvetica Neue LT Com';-inkscape-font-specification:'Helvetica Neue LT Com';stroke-width:0.05078633"
           y="80.427612"
           x="107.23518"
           id="tspan2340"
           sodipodi:role="line">2-Pin, Molex 5557 Connector</tspan></text>
      <path
         sodipodi:nodetypes="cc"
         inkscape:connector-curvature="0"
         id="path2344"
         d="M 103.0793,74.77529 H 84.460834"
         style="fill:none;stroke:#000000;stroke-width:0.22815681;stroke-linecap:butt;stroke-linejoin:miter;stroke-miterlimit:4;stroke-dasharray:none;stroke-opacity:1;marker-start:url(#marker3147)" />
      <path
         sodipodi:nodetypes="cccc"
         inkscape:connector-curvature="0"
         id="path2346"
         d="M 103.0793,72.1052 H 96.007174 V 62.7238 H 118.52252"
         style="fill:none;stroke:#000000;stroke-width:0.22815681;stroke-linecap:butt;stroke-linejoin:miter;stroke-miterlimit:4;stroke-dasharray:none;stroke-opacity:1;marker-start:url(#InfiniteLineStart);marker-end:url(#marker2717)" />
      <path
         sodipodi:nodetypes="cc"
         inkscape:connector-curvature="0"
         id="path2348"
         d="M 84.316504,60.05371 H 118.73902"
         style="fill:none;stroke:#000000;stroke-width:0.22815681;stroke-linecap:butt;stroke-linejoin:miter;stroke-miterlimit:4;stroke-dasharray:none;stroke-opacity:1;marker-end:url(#InfiniteLineEnd)" />
      <path
         inkscape:connector-curvature="0"
         id="path2361"
         d="m 122.76641,59.18983 c -0.0752,-8e-5 -0.18005,2.3e-4 -0.27484,2.9e-4 v 0.14186 c 0.45963,-0.001 0.83501,-0.001 0.95349,0.002 0.36939,0.0117 0.39861,0.0197 0.43088,0.11788 0.0331,0.10059 0.0375,0.10065 0.0973,10e-4 0.0573,-0.0953 0.11708,-0.10276 0.70139,-0.0872 0.35133,0.009 0.74378,0.0268 0.87211,0.0387 0.12834,0.0119 0.42182,0.0241 0.6522,0.0271 0.23038,0.003 0.58015,0.0109 0.77721,0.0174 0.19706,0.007 0.71367,0.0216 1.14802,0.0335 l 0.78974,0.0216 -0.0421,0.1889 c -0.0272,0.12236 -0.0194,0.21278 0.0225,0.25683 0.0601,0.0633 0.0788,0.32866 0.0276,0.39138 -0.0125,0.0153 -0.0195,-0.006 -0.0156,-0.0477 0.006,-0.0625 5.9e-4,-0.0675 -0.0309,-0.0285 -0.0208,0.0259 -0.0347,0.0935 -0.0308,0.15023 0.007,0.0983 0.014,0.10423 0.15106,0.12328 0.19871,0.0276 0.31056,-0.0232 0.20856,-0.0947 -0.0422,-0.0296 -0.10481,-0.0568 -0.1392,-0.0606 -0.137,-0.0151 -0.0168,-0.14828 0.15994,-0.17719 l 0.17877,-0.0292 -0.20101,-0.007 c -0.30121,-0.01 -0.24823,-0.0565 0.0589,-0.0517 0.26696,0.004 0.33067,-0.016 0.28238,-0.0894 -0.0143,-0.0218 0.0523,-0.0368 0.148,-0.0334 0.0957,0.003 0.13625,0.0147 0.0901,0.0251 -0.0692,0.0157 -0.0776,0.0297 -0.0476,0.08 0.0329,0.0552 0.0254,0.0646 -0.0789,0.0996 -0.10689,0.0358 -0.11164,0.0434 -0.0659,0.10386 0.0658,0.0869 0.19298,0.0853 0.26173,-0.003 0.0387,-0.0499 0.0356,-0.0785 -0.01,-0.094 -0.036,-0.0122 0.002,-0.0232 0.0844,-0.0243 0.0824,-0.001 0.15706,0.0177 0.16592,0.042 0.009,0.0242 0.0408,0.0352 0.071,0.0241 0.0343,-0.0125 0.0334,-0.0226 -0.002,-0.0266 -0.12546,-0.0143 -0.0255,-0.0299 0.22174,-0.0347 0.14342,-0.003 0.19916,0.006 0.12385,0.0185 -0.0753,0.0129 -0.15338,0.0348 -0.17354,0.0487 -0.0201,0.0139 -0.0457,0.0113 -0.0569,-0.006 -0.0111,-0.017 -0.0227,-0.009 -0.0257,0.0166 -0.003,0.0261 -0.0284,0.0448 -0.0566,0.0416 -0.0282,-0.003 -0.0536,0.015 -0.0565,0.0404 -0.007,0.0646 0.0847,0.12973 0.11995,0.0849 0.0167,-0.0212 -0.003,-0.0467 -0.0456,-0.0601 -0.0926,-0.0287 -0.10873,-0.0277 0.41129,-0.0266 0.23751,5.8e-4 0.59487,-0.005 0.79413,-0.0129 0.22138,-0.008 0.28287,-10e-4 0.15812,0.0178 -0.17523,0.027 -0.19852,0.0408 -0.16467,0.0976 0.046,0.0772 -0.0128,0.0753 1.02425,0.0329 0.44608,-0.0183 0.85477,-0.0347 0.9082,-0.0364 0.12221,-0.004 0.0993,0.0318 -0.0301,0.0472 -0.0531,0.006 -0.095,0.0249 -0.093,0.0413 0.002,0.0164 0.047,0.0246 0.10012,0.0183 0.0531,-0.006 0.0857,0.002 0.0724,0.0191 -0.0323,0.041 -0.23222,0.0529 -0.2623,0.0156 -0.0132,-0.0163 -0.0609,-0.0394 -0.10611,-0.0513 -0.0602,-0.0158 -0.0765,-0.006 -0.0609,0.0367 0.0224,0.0612 0.21977,0.12786 0.25319,0.0854 0.0107,-0.0136 0.0985,-0.014 0.19511,-0.001 l 0.17561,0.0237 -0.1528,0.033 c -0.27015,0.0584 -0.8776,0.0498 -0.71342,-0.0101 0.0725,-0.0265 0.0378,-0.0359 -0.1562,-0.042 -0.0983,-0.003 -0.16269,0.007 -0.14302,0.0226 0.0197,0.0155 0.0722,0.0203 0.11672,0.0108 0.1081,-0.0231 0.16284,0.0248 0.0828,0.0725 -0.078,0.0465 0.22256,0.061 0.57347,0.0277 0.19741,-0.0187 0.25175,-0.007 0.31034,0.0692 0.0391,0.0506 0.0598,0.10625 0.046,0.12369 -0.0138,0.0174 -0.0326,0.0106 -0.0421,-0.0152 -0.009,-0.0258 -0.0291,-0.0318 -0.0436,-0.0133 -0.0391,0.0496 -1.23108,0.014 -1.67712,-0.0501 -0.0334,-0.005 -0.0544,-0.0168 -0.0466,-0.0266 0.008,-0.01 0.20172,-0.007 0.43096,0.005 0.22923,0.0128 0.41502,0.009 0.41287,-0.01 -0.002,-0.0181 -0.0643,-0.0277 -0.13813,-0.0212 -0.0738,0.006 -0.14568,0.003 -0.15985,-0.009 -0.033,-0.026 -0.49777,-0.0538 -0.53863,-0.0323 -0.0169,0.009 -0.0503,8.8e-4 -0.074,-0.0177 -0.0238,-0.0187 -0.0809,-0.0259 -0.12708,-0.016 -0.0462,0.01 -0.12716,0.008 -0.18002,-0.003 -0.0977,-0.0212 0.0758,-0.0403 0.62283,-0.0684 0.16718,-0.009 0.28737,-0.0294 0.26712,-0.0464 -0.0203,-0.0169 -0.1394,-0.0204 -0.2648,-0.008 -0.12539,0.0128 -0.34761,0.0253 -0.49391,0.0279 -0.25007,0.004 -0.26328,0.01 -0.22025,0.0917 0.0439,0.0834 0.0383,0.0866 -0.13107,0.0747 -0.0972,-0.007 -0.18444,-0.0185 -0.19379,-0.0259 -0.009,-0.007 -0.1288,-0.0285 -0.26553,-0.047 -0.1672,-0.0226 -0.23304,-0.0468 -0.20109,-0.0737 0.0261,-0.0221 0.0303,-0.0492 0.009,-0.0603 -0.021,-0.0111 -0.0554,0.005 -0.0763,0.0355 -0.0209,0.0306 -0.0553,0.0421 -0.0762,0.0256 -0.046,-0.0363 -0.55308,-0.09 -0.8498,-0.09 -0.11773,-2e-5 -0.22558,-0.009 -0.23974,-0.0202 -0.0142,-0.0111 -0.0764,-0.005 -0.13829,0.0136 -0.0619,0.0187 -0.11911,0.0159 -0.12717,-0.006 -0.027,-0.0739 -0.13265,0.0555 -0.16906,0.20706 -0.0352,0.14658 -0.0396,0.14995 -0.19826,0.15281 -0.21724,0.004 -0.27604,-0.0459 -0.0635,-0.0538 0.11694,-0.004 0.13676,-0.0129 0.066,-0.0285 -0.10603,-0.0235 -0.20083,-0.003 -0.24596,0.0521 -0.0147,0.0181 -0.0723,0.0212 -0.12783,0.007 -0.0556,-0.0144 -0.10921,-0.0158 -0.11921,-0.003 -0.0204,0.0259 -0.64765,0.0216 -0.68106,-0.005 -0.0118,-0.009 0.0329,-0.0271 0.0994,-0.0396 l 0.12094,-0.0227 -0.13944,-0.005 c -0.0767,-0.003 -0.12971,0.0104 -0.11788,0.0296 0.0307,0.0499 -0.0195,0.10179 -0.0644,0.0664 -0.0207,-0.0163 -0.12801,-0.0268 -0.23849,-0.0232 -0.30233,0.01 -0.91152,-0.0175 -0.94279,-0.0421 -0.0151,-0.0119 -0.063,-0.0141 -0.10652,-0.005 -0.0435,0.009 -0.19846,0.009 -0.34435,-2.3e-4 -0.44952,-0.0292 -0.93124,-0.0471 -1.47852,-0.0549 -0.82595,-0.0118 -0.98315,-0.0175 -1.00699,-0.0363 -0.0123,-0.01 0.0329,-0.0288 0.10037,-0.0426 l 0.1227,-0.025 -0.12286,0.004 c -0.0676,0.002 -0.12739,0.0166 -0.13298,0.0316 -0.0111,0.0299 -0.27914,0.0485 -0.70612,0.0526 v 0.11464 c 1.01931,10e-4 3.08945,0.0507 3.77357,0.0921 0.34756,0.021 0.89154,0.0399 1.20891,0.042 0.31737,0.002 0.74965,0.006 0.96063,0.01 0.21097,0.003 0.43725,-0.0122 0.50279,-0.0342 0.10577,-0.0355 0.12229,-0.0552 0.14717,-0.17512 l 0.028,-0.13505 0.34892,0.0133 c 0.19192,0.007 0.69655,0.0663 1.12131,0.13107 1.10777,0.16894 2.51664,0.27367 2.91978,0.21701 0.14336,-0.0201 0.16749,-0.0395 0.27782,-0.2224 0.12071,-0.20006 0.11188,-0.30208 -0.0338,-0.39056 -0.0251,-0.0153 -0.0211,-0.0589 0.009,-0.097 0.0607,-0.077 0.009,-0.20494 -0.0713,-0.1757 -0.0628,0.0229 -0.093,-0.0566 -0.0601,-0.1582 0.0571,-0.17582 -0.29229,-0.24336 -0.80682,-0.15604 -0.16117,0.0274 -1.21237,0.006 -1.83639,-0.0375 -0.3806,-0.0265 -0.9537,-0.0663 -1.27353,-0.0885 l -0.58152,-0.0404 -0.0502,-0.12924 c -0.0276,-0.0711 -0.0783,-0.15138 -0.11274,-0.17852 -0.0695,-0.0548 -0.51337,-0.0787 -2.17957,-0.11755 -0.6194,-0.0145 -1.30745,-0.0367 -1.52896,-0.0495 -0.3762,-0.0218 -1.7962,-0.0658 -1.86243,-0.0577 -0.0165,0.002 -0.17263,5.8e-4 -0.34709,-0.003 -0.0545,-10e-4 -0.15084,-0.002 -0.27864,-0.002 z m 7.33476,0.67286 c 0.0232,0.003 0.0249,0.0266 0.004,0.0533 -0.0443,0.0563 -0.0587,0.0529 -0.0513,-0.012 0.003,-0.0254 0.0243,-0.0439 0.0475,-0.0413 z m 0.19602,0.009 c 0.0293,-2.3e-4 0.0533,0.009 0.0588,0.0239 0.007,0.0202 0.0408,0.0203 0.0743,3e-4 0.0335,-0.0199 0.0678,-0.0172 0.0763,0.006 0.009,0.0233 0.0375,0.0295 0.0645,0.0138 0.027,-0.0157 0.12261,-0.0179 0.21228,-0.005 0.10528,0.0153 0.13639,0.0303 0.0879,0.0422 -0.0413,0.0102 -0.0916,0.048 -0.11166,0.0841 -0.02,0.0361 -0.0602,0.063 -0.0893,0.0596 -0.03,-0.003 -0.0308,-0.0141 -0.002,-0.0246 0.0914,-0.0334 0.0168,-0.12002 -0.0967,-0.11224 -0.0609,0.004 -0.10075,-0.005 -0.0885,-0.0206 0.0122,-0.0155 -0.0202,-0.0163 -0.0721,-0.002 -0.0519,0.0145 -0.12277,0.01 -0.15745,-0.01 -0.0503,-0.0289 -0.0477,-0.0395 0.0129,-0.0525 0.0105,-0.002 0.0208,-0.003 0.0306,-0.003 z m -0.81039,0.006 c 0.077,5.9e-4 0.15278,0.006 0.21842,0.0195 0.10107,0.0201 0.0876,0.0279 -0.0991,0.0572 -0.1188,0.0187 -0.18881,0.0381 -0.15562,0.0431 0.0842,0.0128 0.0582,0.0331 -0.0701,0.0547 -0.17417,0.0293 -0.37983,-0.003 -0.37347,-0.0587 0.008,-0.0673 0.24897,-0.11715 0.4799,-0.11588 z m 3.77025,0.0918 c 0.0252,-8.8e-4 0.0469,0.004 0.0618,0.0155 0.0148,0.0116 -0.0106,0.0623 -0.0564,0.11249 -0.0458,0.0502 -0.0885,0.0769 -0.095,0.0594 -0.006,-0.0175 -0.0364,-0.0228 -0.0666,-0.0118 -0.0344,0.0126 -0.0334,0.0225 0.002,0.0265 0.0373,0.004 0.0361,0.0265 -0.003,0.0633 -0.0334,0.0312 -0.23434,0.0624 -0.44663,0.0692 -0.2123,0.007 -0.34111,0.002 -0.28629,-0.0112 0.0951,-0.0225 0.0942,-0.0244 -0.0199,-0.0433 -0.0658,-0.0109 -0.12971,-0.034 -0.14211,-0.0513 -0.0309,-0.0432 -0.23305,-0.0259 -0.23832,0.0203 -0.002,0.0205 -0.0465,0.0373 -0.0981,0.0372 -0.0829,-2.2e-4 -0.0842,-0.003 -0.0106,-0.0207 0.0457,-0.0113 0.0815,-0.0348 0.0795,-0.0523 -0.006,-0.0516 0.88333,-0.0577 0.90214,-0.006 0.009,0.0259 0.0287,0.024 0.0428,-0.004 0.0141,-0.0283 0.0399,-0.0352 0.0572,-0.0155 0.0183,0.0208 0.0573,-0.005 0.0926,-0.0617 0.0429,-0.0688 0.14917,-0.12277 0.22472,-0.12567 z m -0.77837,0.006 c 0.0613,-10e-4 0.0677,0.008 0.0301,0.0431 -0.0644,0.0609 -0.11982,0.0639 -0.11323,0.006 0.003,-0.026 0.0404,-0.0482 0.0831,-0.0493 z m -0.50097,0.004 c 0.0204,-0.002 0.0151,0.0163 -0.0117,0.0416 -0.0268,0.0254 -0.0654,0.0481 -0.0858,0.0505 -0.0204,0.002 -0.0151,-0.0164 0.0117,-0.0417 0.0268,-0.0254 0.0654,-0.048 0.0858,-0.0504 z m 0.19395,0 c 0.0232,0.003 0.0249,0.0267 0.004,0.0534 -0.0443,0.0563 -0.0588,0.0529 -0.0513,-0.012 0.003,-0.0254 0.0243,-0.044 0.0474,-0.0414 z m -1.78097,0.0314 c 0.055,-0.001 0.0648,0.009 0.0389,0.0421 -0.019,0.0242 -0.0546,0.0282 -0.079,0.009 -0.0245,-0.0193 -0.042,-0.0383 -0.039,-0.0421 0.003,-0.004 0.0387,-0.008 0.0791,-0.009 z m -0.20184,0.005 c 0.0245,-5e-5 0.0115,0.005 -0.0396,0.0186 -0.045,0.0119 -0.0798,0.0367 -0.0776,0.055 0.002,0.0183 -0.0179,0.0308 -0.0446,0.0278 -0.0733,-0.008 0.0343,-0.0943 0.12492,-0.0998 0.0165,-0.001 0.0288,-0.001 0.037,-0.001 z m -0.57861,0.0216 c -0.02,0.002 -0.0192,0.0144 -0.001,0.0417 0.022,0.0334 -0.01,0.0539 -0.10652,0.0684 -0.0848,0.0127 -0.12117,0.0339 -0.0946,0.0548 0.0347,0.0273 0.0272,0.0375 -0.0377,0.0514 -0.0531,0.0114 -0.0685,0.0271 -0.0447,0.0459 0.0199,0.0157 0.076,0.0112 0.1246,-0.01 0.0486,-0.0212 0.0785,-0.0463 0.0665,-0.0557 -0.0119,-0.009 0.0351,-0.0362 0.10461,-0.0595 0.0695,-0.0233 0.10162,-0.0451 0.0715,-0.0485 -0.0301,-0.003 -0.0415,-0.023 -0.0253,-0.0435 0.0162,-0.0205 0.003,-0.0404 -0.0302,-0.0441 -0.0114,-10e-4 -0.0204,-0.002 -0.027,-8.8e-4 z m 1.73767,0.10286 c 0.0235,-10e-4 0.0404,3e-5 0.045,0.004 0.009,0.007 -0.0341,0.0217 -0.0962,0.0323 -0.0621,0.0106 -0.12047,0.0133 -0.12966,0.006 -0.009,-0.007 0.0342,-0.0218 0.0963,-0.0324 0.0311,-0.005 0.0611,-0.009 0.0846,-0.01 z m 0.52021,0.009 c 0.0245,-5e-5 0.0115,0.005 -0.0396,0.0186 -0.045,0.0119 -0.0799,0.0367 -0.0777,0.055 0.002,0.0183 -0.0179,0.0308 -0.0445,0.0278 -0.0733,-0.008 0.0343,-0.0943 0.12493,-0.0998 0.0165,-0.001 0.0288,-0.001 0.037,-0.001 z m -0.3212,0.001 c 0.0856,2.3e-4 0.0858,0.002 0.003,0.0225 -0.0874,0.0212 -0.12864,0.0173 -0.10701,-0.0101 0.005,-0.007 0.0524,-0.0125 0.10436,-0.0123 z m -0.59023,0.006 c 0.0235,-0.001 0.0404,3e-5 0.045,0.004 0.009,0.007 -0.0341,0.0218 -0.0962,0.0323 -0.0621,0.0106 -0.12047,0.0133 -0.12965,0.006 -0.009,-0.007 0.0341,-0.0218 0.0962,-0.0324 0.0311,-0.005 0.0612,-0.009 0.0847,-0.01 z m 2.50949,0.0796 -0.18955,0.0348 c -0.14768,0.0271 -0.17115,0.0409 -0.10635,0.0625 0.0811,0.0271 0.0803,0.0283 -0.0322,0.0474 -0.14289,0.0243 -0.14836,0.0201 -0.0761,-0.0586 0.032,-0.0348 0.136,-0.0685 0.23119,-0.0747 z m -1.3457,0.059 c 0.009,5.8e-4 0.0155,10e-4 0.0178,0.003 0.009,0.007 -0.0482,0.0229 -0.12742,0.0348 -0.0792,0.0119 -0.1515,0.0158 -0.16068,0.009 -0.009,-0.007 0.0481,-0.0229 0.12733,-0.0348 0.0594,-0.009 0.115,-0.0133 0.14294,-0.0119 z m 1.43895,0.003 c 0.008,8.8e-4 0.0114,0.0228 0.006,0.0584 -0.007,0.0474 0.0122,0.089 0.0421,0.0924 0.0325,0.004 0.0326,0.0141 9e-5,0.026 -0.0298,0.0109 -0.0578,0.0169 -0.0622,0.0134 -0.0236,-0.0186 -0.021,-0.15427 0.004,-0.18366 0.004,-0.005 0.007,-0.007 0.0101,-0.006 z m -3.65163,0.0465 c -0.004,10e-4 -0.007,0.0102 -0.009,0.0266 -0.004,0.0343 -0.11032,0.0681 -0.26173,0.0831 -0.1403,0.0139 -0.23193,0.0252 -0.20365,0.0252 0.12633,-2.2e-4 0.10199,0.0535 -0.0348,0.0767 -0.084,0.0142 -0.0168,0.0252 0.15131,0.0246 0.26878,-8.8e-4 0.64238,-0.0551 0.49516,-0.0719 -0.0314,-0.004 -0.0756,-0.0491 -0.0984,-0.10104 -0.0196,-0.0448 -0.0315,-0.0651 -0.0388,-0.0633 z m 2.93422,0.015 c 0.0856,2.3e-4 0.0858,0.002 0.003,0.0226 -0.0874,0.0213 -0.12864,0.0174 -0.10701,-0.0101 0.005,-0.007 0.0524,-0.0125 0.10435,-0.0124 z m -1.61572,0.006 c -0.0397,10e-4 -0.0923,0.005 -0.16276,0.01 -0.13869,0.009 -0.21527,0.0295 -0.17023,0.0446 0.0611,0.0205 0.035,0.0347 -0.1027,0.056 -0.14403,0.0223 -0.16564,0.0347 -0.0982,0.0561 0.074,0.0235 0.0745,0.0301 0.004,0.046 v 8e-5 c -0.0716,0.0161 -0.0691,0.0257 0.0184,0.071 0.0872,0.0452 0.0967,0.0419 0.0692,-0.0244 -0.0292,-0.0704 -0.0205,-0.0785 0.1066,-0.0976 0.15612,-0.0235 0.21101,5.9e-4 0.15728,0.0687 -0.02,0.0254 -0.0782,0.0298 -0.12941,0.01 -0.063,-0.0246 -0.0831,-0.0189 -0.0623,0.0177 0.0179,0.0314 0.18189,0.0386 0.39172,0.0174 0.19856,-0.0201 0.44498,-0.035 0.54767,-0.0333 0.29186,0.005 0.77228,-0.0385 0.66953,-0.0606 -0.0508,-0.011 -0.31829,-0.0111 -0.59437,-5.9e-4 -0.27609,0.0107 -0.55861,0.0217 -0.62781,0.0243 -0.0692,0.003 -0.13654,-0.005 -0.14965,-0.0159 -0.0131,-0.0114 0.0506,-0.0224 0.14144,-0.0246 0.13807,-0.003 0.16111,-0.0156 0.14061,-0.0757 -0.0255,-0.0746 -0.0294,-0.0926 -0.14866,-0.0889 z m 0.96585,0.007 c 0.0235,-10e-4 0.0404,3e-5 0.045,0.004 0.009,0.007 -0.0341,0.0217 -0.0962,0.0323 -0.0621,0.0105 -0.12047,0.0133 -0.12966,0.006 -0.009,-0.007 0.0341,-0.0218 0.0962,-0.0324 0.0311,-0.005 0.0612,-0.009 0.0847,-0.01 z m -1.65521,0.01 c -0.0248,-2.3e-4 -0.0511,9e-5 -0.0777,0.001 -0.10631,0.004 -0.17843,0.0185 -0.16019,0.0317 0.0182,0.0132 0.12016,0.0204 0.22647,0.0162 0.10631,-0.004 0.17843,-0.0185 0.16019,-0.0317 -0.0137,-0.01 -0.0745,-0.0165 -0.14882,-0.0173 z m 1.23272,0.0145 c 0.009,5.9e-4 0.0155,0.001 0.0178,0.003 0.009,0.007 -0.0481,0.0229 -0.12733,0.0348 -0.0792,0.0119 -0.15159,0.0158 -0.16077,0.009 -0.009,-0.007 0.0481,-0.0229 0.12734,-0.0348 0.0594,-0.009 0.115,-0.0134 0.14293,-0.0119 z m -2.78881,0.0199 c 0.0598,1e-5 0.13002,0.0113 0.16916,0.0338 0.0379,0.0218 0.0318,0.0317 -0.0271,0.0443 -0.0418,0.009 -0.0824,-0.001 -0.0902,-0.0224 -0.008,-0.0213 -0.0455,-0.0257 -0.0838,-0.01 -0.0383,0.0159 -0.0718,0.0104 -0.0745,-0.0122 -0.003,-0.0225 0.0466,-0.0337 0.10643,-0.0337 z m 2.22031,0.005 c 0.0702,5.8e-4 0.12059,0.008 0.12203,0.0204 0.002,0.0161 -0.0433,0.029 -0.10046,0.0288 -0.21081,-8.8e-4 -0.28527,-0.037 -0.0973,-0.0474 0.0267,-0.001 0.0523,-0.002 0.0757,-0.002 z m -1.2883,0.0426 c 0.0544,-0.002 0.0267,0.0144 -0.0781,0.0495 -0.0673,0.0226 -0.16679,0.0324 -0.22116,0.0218 -0.0664,-0.0129 -0.0297,-0.0292 0.11141,-0.0496 0.0929,-0.0134 0.15517,-0.0208 0.18781,-0.0217 z m 0.54734,0.022 c -0.01,5.8e-4 -0.0209,0.002 -0.0322,0.005 -0.0513,0.011 -0.0689,0.0281 -0.0468,0.0455 0.0403,0.0318 0.13722,0.005 0.13231,-0.0359 -0.001,-0.0113 -0.0233,-0.0165 -0.0533,-0.0143 z m -0.17827,8.8e-4 c -0.0134,-5.9e-4 -0.03,2.3e-4 -0.0501,0.002 -0.10685,0.0109 -0.10712,0.0128 -0.0101,0.0707 0.0549,0.0327 0.12187,0.0558 0.14882,0.0514 0.0269,-0.004 0.0236,-0.0119 -0.007,-0.0165 -0.031,-0.005 -0.0485,-0.0328 -0.0389,-0.0625 0.01,-0.0297 -0.002,-0.0436 -0.0423,-0.0453 z m 3.37629,0.0322 c 0.0165,8.8e-4 0.0247,0.007 0.0204,0.019 -0.008,0.0236 0.003,0.0449 0.0266,0.0475 0.0231,0.003 0.0395,0.0255 0.0367,0.0508 -0.003,0.0253 -0.0282,0.0211 -0.0563,-0.009 -0.0281,-0.0306 -0.0856,-0.0554 -0.12767,-0.0553 -0.0658,3e-4 -0.0616,-0.005 0.0299,-0.0381 0.0293,-0.0106 0.054,-0.0154 0.0705,-0.0146 z m 0.15322,0.20489 -0.0925,0.10287 c -0.0509,0.0566 -0.0922,0.10134 -0.0918,0.0996 3e-4,-0.002 -0.0168,-0.0335 -0.0381,-0.0705 -0.0357,-0.062 -0.0285,-0.0697 0.0919,-0.0995 z m -9.20276,0.002 c -0.007,5.9e-4 -0.0144,0.002 -0.0208,0.005 -0.0258,0.009 -0.0319,0.0289 -0.0135,0.0434 0.0184,0.0145 0.0544,0.0186 0.0802,0.009 0.0258,-0.009 0.0319,-0.0289 0.0135,-0.0434 -0.0138,-0.0109 -0.0375,-0.0159 -0.0594,-0.0138 z m -0.95291,0.004 c -0.0721,10e-4 -0.12594,0.006 -0.13082,0.0119 -0.0183,0.0232 0.29069,0.0325 0.35074,0.0105 0.0293,-0.0107 -0.035,-0.0208 -0.14285,-0.0225 -0.027,-5.9e-4 -0.053,-3e-4 -0.0771,0 z m 5.30683,5.8e-4 c 0.0194,-0.002 0.0208,0.0143 0.003,0.0367 -0.0177,0.0225 -0.01,0.0434 0.0174,0.0465 0.0273,0.003 0.0397,0.0176 0.0278,0.0323 -0.012,0.0146 -0.0513,0.037 -0.0873,0.0497 -0.0512,0.0181 -0.0579,0.003 -0.0309,-0.0689 0.019,-0.0506 0.0504,-0.094 0.0698,-0.0963 z m -3.98883,0.0221 c -0.0326,10e-4 -0.0542,0.003 -0.0567,0.006 -0.02,0.0253 0.17038,0.0412 0.25791,0.0215 0.0577,-0.013 0.028,-0.0233 -0.0778,-0.027 -0.047,-0.002 -0.0908,-0.002 -0.12344,-8.8e-4 z m 0.65344,0.002 c -0.0112,0.001 -0.0246,0.004 -0.0375,0.009 -0.0258,0.009 -0.031,0.0297 -0.0115,0.045 0.0194,0.0153 0.0471,0.0128 0.0616,-0.006 0.0145,-0.0183 0.0197,-0.0386 0.0116,-0.045 -0.004,-0.003 -0.013,-0.004 -0.0241,-0.003 z m -0.22896,0.008 c -0.0128,-6e-5 -0.0267,8.8e-4 -0.0411,0.003 -0.10047,0.0143 -0.10029,0.0159 0.004,0.0363 0.0602,0.0118 0.10748,0.005 0.1051,-0.0149 -0.002,-0.015 -0.0299,-0.0242 -0.0683,-0.0244 z m 0.84059,0.0318 c -0.0326,0.001 -0.0558,0.005 -0.0617,0.0129 -0.0299,0.0379 0.13245,0.0627 0.2453,0.0374 0.0823,-0.0184 0.0748,-0.0234 -0.0654,-0.0428 -0.0436,-0.006 -0.0856,-0.008 -0.11821,-0.007 z m 0.84084,0.0232 c -0.0814,8.8e-4 -0.16109,0.009 -0.1728,0.0241 -0.0127,0.0162 0.0465,0.0327 0.13157,0.0368 0.15571,0.008 0.26114,-0.0117 0.22407,-0.0409 -0.0184,-0.0145 -0.10147,-0.021 -0.18284,-0.0201 z m -0.37421,5.8e-4 c -0.0127,3e-4 -0.0266,10e-4 -0.0411,0.003 -0.10029,0.0141 -0.10012,0.0154 0.003,0.0285 0.0596,0.008 0.1068,8.8e-4 0.10493,-0.0148 -0.001,-0.0118 -0.0291,-0.0182 -0.0673,-0.0173 z m 4.7288,0.0471 c 0.0114,10e-4 0.0818,0.002 0.15645,10e-4 l 0.13572,-5.9e-4 -0.1227,0.0251 c -0.0675,0.0137 -0.13789,0.013 -0.15645,-10e-4 -0.0186,-0.0146 -0.0244,-0.0256 -0.013,-0.0244 z"
         style="fill:#000000;stroke-width:0.04247326" />
      <path
         style="fill:#000000;stroke-width:0.04247326"
         d="m 122.76641,61.93209 c -0.0752,-9e-5 -0.18005,2.3e-4 -0.27484,2.9e-4 v 0.14185 c 0.45963,-10e-4 0.83501,-10e-4 0.95349,0.002 0.36939,0.0117 0.39861,0.0197 0.43088,0.11788 0.0331,0.10059 0.0375,0.10065 0.0973,10e-4 0.0573,-0.0953 0.11708,-0.10276 0.70139,-0.0872 0.35133,0.009 0.74378,0.0268 0.87211,0.0386 0.12834,0.0119 0.42182,0.0241 0.6522,0.0271 0.23038,0.003 0.58015,0.0109 0.77721,0.0174 0.19706,0.007 0.71367,0.0216 1.14802,0.0335 l 0.78974,0.0216 -0.0421,0.18889 c -0.0272,0.12236 -0.0194,0.21278 0.0225,0.25683 0.0601,0.0633 0.0788,0.32866 0.0276,0.39139 -0.0125,0.0153 -0.0195,-0.006 -0.0156,-0.0477 0.006,-0.0625 5.9e-4,-0.0675 -0.0309,-0.0285 -0.0208,0.0259 -0.0347,0.0935 -0.0308,0.15023 0.007,0.0983 0.014,0.10423 0.15106,0.12328 0.19871,0.0276 0.31056,-0.0232 0.20856,-0.0947 -0.0422,-0.0296 -0.10481,-0.0568 -0.1392,-0.0606 -0.137,-0.0151 -0.0168,-0.14829 0.15994,-0.17719 l 0.17877,-0.0292 -0.20101,-0.007 c -0.30121,-0.01 -0.24823,-0.0565 0.0589,-0.0517 0.26696,0.004 0.33067,-0.016 0.28238,-0.0894 -0.0143,-0.0218 0.0523,-0.0368 0.148,-0.0334 0.0957,0.003 0.13625,0.0147 0.0901,0.0251 -0.0692,0.0157 -0.0776,0.0297 -0.0476,0.08 0.0329,0.0552 0.0254,0.0646 -0.0789,0.0996 -0.10689,0.0358 -0.11164,0.0434 -0.0659,0.10386 0.0658,0.0869 0.19298,0.0853 0.26173,-0.003 0.0387,-0.0499 0.0356,-0.0785 -0.01,-0.094 -0.036,-0.0123 0.002,-0.0232 0.0844,-0.0243 0.0824,-10e-4 0.15706,0.0177 0.16592,0.042 0.009,0.0242 0.0408,0.0352 0.071,0.0241 0.0343,-0.0125 0.0334,-0.0225 -0.002,-0.0266 -0.12546,-0.0143 -0.0255,-0.0299 0.22174,-0.0347 0.14342,-0.003 0.19916,0.006 0.12385,0.0185 -0.0753,0.0129 -0.15338,0.0348 -0.17354,0.0487 -0.0201,0.0139 -0.0457,0.0113 -0.0569,-0.006 -0.0111,-0.0169 -0.0227,-0.009 -0.0257,0.0166 -0.003,0.0261 -0.0284,0.0448 -0.0566,0.0416 -0.0282,-0.003 -0.0536,0.015 -0.0565,0.0404 -0.007,0.0646 0.0847,0.12973 0.11995,0.0849 0.0167,-0.0212 -0.003,-0.0467 -0.0456,-0.06 -0.0926,-0.0287 -0.10873,-0.0277 0.41129,-0.0266 0.23751,5.8e-4 0.59487,-0.005 0.79413,-0.0129 0.22138,-0.008 0.28287,-10e-4 0.15812,0.0177 -0.17523,0.027 -0.19852,0.0408 -0.16467,0.0976 0.046,0.0772 -0.0128,0.0753 1.02425,0.0328 0.44608,-0.0183 0.85477,-0.0346 0.9082,-0.0364 0.12221,-0.004 0.0993,0.0318 -0.0301,0.0472 -0.0531,0.006 -0.095,0.0249 -0.093,0.0413 0.002,0.0164 0.047,0.0246 0.10012,0.0183 0.0531,-0.006 0.0857,0.002 0.0724,0.0191 -0.0323,0.041 -0.23222,0.0529 -0.2623,0.0156 -0.0132,-0.0163 -0.0609,-0.0394 -0.10611,-0.0513 -0.0602,-0.0158 -0.0765,-0.006 -0.0609,0.0367 0.0224,0.0612 0.21977,0.12787 0.25319,0.0854 0.0107,-0.0136 0.0985,-0.014 0.19511,-0.001 l 0.17561,0.0237 -0.1528,0.033 c -0.27015,0.0584 -0.8776,0.0498 -0.71342,-0.0101 0.0725,-0.0265 0.0378,-0.0358 -0.1562,-0.042 -0.0983,-0.003 -0.16269,0.007 -0.14302,0.0226 0.0197,0.0155 0.0722,0.0203 0.11672,0.0108 0.1081,-0.0231 0.16284,0.0248 0.0828,0.0725 -0.078,0.0465 0.22256,0.061 0.57347,0.0277 0.19741,-0.0187 0.25175,-0.007 0.31034,0.0692 0.0391,0.0506 0.0598,0.10624 0.046,0.12368 -0.0138,0.0174 -0.0326,0.0106 -0.0421,-0.0152 -0.009,-0.0258 -0.0291,-0.0318 -0.0436,-0.0133 -0.0391,0.0496 -1.23108,0.014 -1.67712,-0.0501 -0.0334,-0.005 -0.0544,-0.0168 -0.0466,-0.0266 0.008,-0.01 0.20172,-0.007 0.43096,0.005 0.22923,0.0128 0.41502,0.009 0.41287,-0.01 -0.002,-0.0181 -0.0643,-0.0277 -0.13813,-0.0212 -0.0738,0.006 -0.14568,0.003 -0.15985,-0.009 -0.033,-0.026 -0.49777,-0.0538 -0.53863,-0.0323 -0.0169,0.009 -0.0503,8.8e-4 -0.074,-0.0178 -0.0238,-0.0187 -0.0809,-0.0259 -0.12708,-0.016 -0.0462,0.01 -0.12716,0.009 -0.18002,-0.003 -0.0977,-0.0212 0.0758,-0.0403 0.62283,-0.0684 0.16718,-0.009 0.28737,-0.0294 0.26712,-0.0464 -0.0203,-0.0169 -0.1394,-0.0204 -0.2648,-0.008 -0.12539,0.0127 -0.34761,0.0253 -0.49391,0.0279 -0.25007,0.004 -0.26328,0.01 -0.22025,0.0917 0.0439,0.0834 0.0383,0.0866 -0.13107,0.0747 -0.0972,-0.007 -0.18444,-0.0185 -0.19379,-0.0259 -0.009,-0.007 -0.1288,-0.0285 -0.26553,-0.047 -0.1672,-0.0226 -0.23304,-0.0468 -0.20109,-0.0737 0.0261,-0.0221 0.0303,-0.0492 0.009,-0.0603 -0.021,-0.0111 -0.0554,0.005 -0.0763,0.0355 -0.0209,0.0306 -0.0553,0.0421 -0.0762,0.0256 -0.046,-0.0363 -0.55308,-0.09 -0.8498,-0.09 -0.11773,-2e-5 -0.22558,-0.009 -0.23974,-0.0202 -0.0142,-0.0111 -0.0764,-0.005 -0.13829,0.0136 -0.0619,0.0187 -0.11911,0.0159 -0.12717,-0.006 -0.027,-0.0739 -0.13265,0.0555 -0.16906,0.20705 -0.0352,0.14657 -0.0396,0.14995 -0.19826,0.15281 -0.21724,0.004 -0.27604,-0.0459 -0.0635,-0.0538 0.11694,-0.004 0.13676,-0.0129 0.066,-0.0285 -0.10603,-0.0235 -0.20083,-0.003 -0.24596,0.0521 -0.0147,0.0181 -0.0723,0.0212 -0.12783,0.007 -0.0556,-0.0144 -0.10921,-0.0158 -0.11921,-0.003 -0.0204,0.0259 -0.64765,0.0216 -0.68106,-0.005 -0.0118,-0.009 0.0329,-0.0271 0.0994,-0.0396 l 0.12094,-0.0227 -0.13944,-0.005 c -0.0767,-0.003 -0.12971,0.0104 -0.11788,0.0296 0.0307,0.0499 -0.0195,0.10179 -0.0644,0.0664 -0.0207,-0.0163 -0.12801,-0.0268 -0.23849,-0.0232 -0.30233,0.01 -0.91152,-0.0175 -0.94279,-0.0421 -0.0151,-0.0119 -0.063,-0.0141 -0.10652,-0.005 -0.0435,0.009 -0.19846,0.009 -0.34435,-2.3e-4 -0.44952,-0.0292 -0.93124,-0.0471 -1.47852,-0.0549 -0.82595,-0.0118 -0.98315,-0.0175 -1.00699,-0.0362 -0.0123,-0.01 0.0329,-0.0288 0.10037,-0.0426 l 0.1227,-0.025 -0.12286,0.004 c -0.0676,0.002 -0.12739,0.0166 -0.13298,0.0316 -0.0111,0.0299 -0.27914,0.0485 -0.70612,0.0526 v 0.11464 c 1.01931,10e-4 3.08945,0.0507 3.77357,0.0921 0.34756,0.021 0.89154,0.0399 1.20891,0.042 0.31737,0.002 0.74965,0.006 0.96063,0.01 0.21097,0.003 0.43725,-0.0122 0.50279,-0.0342 0.10577,-0.0355 0.12229,-0.0552 0.14717,-0.17512 l 0.028,-0.13505 0.34892,0.0134 c 0.19192,0.007 0.69655,0.0663 1.12131,0.13107 1.10777,0.16894 2.51664,0.27367 2.91978,0.21701 0.14336,-0.0202 0.16749,-0.0395 0.27782,-0.22241 0.12071,-0.20006 0.11188,-0.30208 -0.0338,-0.39055 -0.0251,-0.0153 -0.0211,-0.0589 0.009,-0.097 0.0607,-0.077 0.009,-0.20493 -0.0713,-0.1757 -0.0628,0.0229 -0.093,-0.0566 -0.0601,-0.15819 0.0571,-0.17583 -0.29229,-0.24337 -0.80682,-0.15604 -0.16117,0.0274 -1.21237,0.006 -1.83639,-0.0375 -0.3806,-0.0264 -0.9537,-0.0663 -1.27353,-0.0885 l -0.58152,-0.0404 -0.0502,-0.12925 c -0.0276,-0.0711 -0.0783,-0.15138 -0.11274,-0.17852 -0.0695,-0.0548 -0.51337,-0.0787 -2.17957,-0.11755 -0.6194,-0.0145 -1.30745,-0.0367 -1.52896,-0.0495 -0.3762,-0.0217 -1.7962,-0.0658 -1.86243,-0.0577 -0.0165,0.002 -0.17263,5.9e-4 -0.34709,-0.003 -0.0545,-0.001 -0.15084,-0.002 -0.27864,-0.002 z m 7.33476,0.67285 c 0.0232,0.003 0.0249,0.0266 0.004,0.0533 -0.0443,0.0563 -0.0587,0.0529 -0.0513,-0.012 0.003,-0.0254 0.0243,-0.0439 0.0475,-0.0413 z m 0.19602,0.009 c 0.0293,-2.2e-4 0.0533,0.009 0.0588,0.0239 0.007,0.0202 0.0408,0.0203 0.0743,2.9e-4 0.0335,-0.0199 0.0678,-0.0172 0.0763,0.006 0.009,0.0233 0.0375,0.0295 0.0645,0.0138 0.027,-0.0157 0.12261,-0.0179 0.21228,-0.005 0.10528,0.0153 0.13639,0.0303 0.0879,0.0422 -0.0413,0.0102 -0.0916,0.048 -0.11166,0.0841 -0.02,0.0361 -0.0602,0.063 -0.0893,0.0597 -0.03,-0.003 -0.0308,-0.0141 -0.002,-0.0246 0.0914,-0.0334 0.0168,-0.12001 -0.0967,-0.11224 -0.0609,0.004 -0.10075,-0.005 -0.0885,-0.0207 0.0122,-0.0155 -0.0202,-0.0163 -0.0721,-0.002 -0.0519,0.0145 -0.12277,0.01 -0.15745,-0.01 -0.0503,-0.0289 -0.0477,-0.0395 0.0129,-0.0525 0.0105,-0.002 0.0208,-0.003 0.0306,-0.003 z m -0.81039,0.006 c 0.077,5.8e-4 0.15278,0.006 0.21842,0.0195 0.10107,0.0201 0.0876,0.0279 -0.0991,0.0572 -0.1188,0.0187 -0.18881,0.0381 -0.15562,0.0431 0.0842,0.0128 0.0582,0.0331 -0.0701,0.0547 -0.17417,0.0293 -0.37983,-0.003 -0.37347,-0.0587 0.008,-0.0673 0.24897,-0.11715 0.4799,-0.11589 z m 3.77025,0.0917 c 0.0252,-8.8e-4 0.0469,0.004 0.0618,0.0155 0.0148,0.0116 -0.0106,0.0623 -0.0564,0.11249 -0.0458,0.0502 -0.0885,0.0769 -0.095,0.0594 -0.006,-0.0175 -0.0364,-0.0228 -0.0666,-0.0118 -0.0344,0.0126 -0.0334,0.0225 0.002,0.0266 0.0373,0.004 0.0361,0.0265 -0.003,0.0633 -0.0334,0.0312 -0.23434,0.0624 -0.44663,0.0692 -0.2123,0.007 -0.34111,0.002 -0.28629,-0.0112 0.0951,-0.0225 0.0942,-0.0244 -0.0199,-0.0433 -0.0658,-0.0109 -0.12971,-0.034 -0.14211,-0.0513 -0.0309,-0.0432 -0.23305,-0.026 -0.23832,0.0203 -0.002,0.0206 -0.0465,0.0373 -0.0981,0.0372 -0.0829,-2.3e-4 -0.0842,-0.003 -0.0106,-0.0207 0.0457,-0.0113 0.0815,-0.0348 0.0795,-0.0523 -0.006,-0.0516 0.88333,-0.0577 0.90214,-0.006 0.009,0.0259 0.0287,0.024 0.0428,-0.004 0.0141,-0.0283 0.0399,-0.0352 0.0572,-0.0155 0.0183,0.0208 0.0573,-0.005 0.0926,-0.0617 0.0429,-0.0688 0.14917,-0.12277 0.22472,-0.12568 z m -0.77837,0.006 c 0.0613,-0.001 0.0677,0.008 0.0301,0.0431 -0.0644,0.0609 -0.11982,0.0639 -0.11323,0.006 0.003,-0.026 0.0404,-0.0482 0.0831,-0.0493 z m -0.50097,0.004 c 0.0204,-0.002 0.0151,0.0163 -0.0117,0.0417 -0.0268,0.0254 -0.0654,0.0481 -0.0858,0.0505 -0.0204,0.002 -0.0151,-0.0164 0.0117,-0.0417 0.0268,-0.0254 0.0654,-0.048 0.0858,-0.0504 z m 0.19395,0 c 0.0232,0.003 0.0249,0.0267 0.004,0.0534 -0.0443,0.0563 -0.0588,0.0529 -0.0513,-0.012 0.003,-0.0254 0.0243,-0.044 0.0474,-0.0414 z m -1.78097,0.0314 c 0.055,-10e-4 0.0648,0.009 0.0389,0.0421 -0.019,0.0242 -0.0546,0.0282 -0.079,0.009 -0.0245,-0.0193 -0.042,-0.0383 -0.039,-0.0421 0.003,-0.004 0.0387,-0.008 0.0791,-0.009 z m -0.20184,0.005 c 0.0245,-5e-5 0.0115,0.005 -0.0396,0.0186 -0.045,0.0119 -0.0798,0.0367 -0.0776,0.055 0.002,0.0183 -0.0179,0.0308 -0.0446,0.0278 -0.0733,-0.008 0.0343,-0.0943 0.12492,-0.0998 0.0165,-10e-4 0.0288,-10e-4 0.037,-10e-4 z m -0.57861,0.0216 c -0.02,0.002 -0.0192,0.0144 -0.001,0.0417 0.022,0.0334 -0.01,0.0539 -0.10652,0.0684 -0.0848,0.0128 -0.12117,0.0339 -0.0946,0.0548 0.0347,0.0273 0.0272,0.0375 -0.0377,0.0514 -0.0531,0.0113 -0.0685,0.0272 -0.0447,0.0459 0.0199,0.0157 0.076,0.0112 0.1246,-0.01 0.0486,-0.0212 0.0785,-0.0463 0.0665,-0.0557 -0.0119,-0.009 0.0351,-0.0362 0.10461,-0.0595 0.0695,-0.0233 0.10162,-0.0451 0.0715,-0.0485 -0.0301,-0.003 -0.0415,-0.023 -0.0253,-0.0436 0.0162,-0.0205 0.003,-0.0404 -0.0302,-0.0441 -0.0114,-10e-4 -0.0204,-0.002 -0.027,-8.8e-4 z m 1.73767,0.10287 c 0.0235,-0.001 0.0404,3e-5 0.045,0.004 0.009,0.007 -0.0341,0.0217 -0.0962,0.0323 -0.0621,0.0106 -0.12047,0.0133 -0.12966,0.006 -0.009,-0.007 0.0342,-0.0218 0.0963,-0.0324 0.0311,-0.005 0.0611,-0.009 0.0846,-0.01 z m 0.52021,0.009 c 0.0245,-5e-5 0.0115,0.005 -0.0396,0.0186 -0.045,0.0119 -0.0799,0.0367 -0.0777,0.055 0.002,0.0183 -0.0179,0.0308 -0.0445,0.0278 -0.0733,-0.008 0.0343,-0.0943 0.12493,-0.0998 0.0165,-10e-4 0.0288,-10e-4 0.037,-10e-4 z m -0.3212,0.001 c 0.0856,2.2e-4 0.0858,0.002 0.003,0.0225 -0.0874,0.0213 -0.12864,0.0173 -0.10701,-0.0101 0.005,-0.007 0.0524,-0.0125 0.10436,-0.0124 z m -0.59023,0.006 c 0.0235,-0.001 0.0404,3e-5 0.045,0.004 0.009,0.007 -0.0341,0.0218 -0.0962,0.0324 -0.0621,0.0105 -0.12047,0.0133 -0.12965,0.006 -0.009,-0.007 0.0341,-0.0218 0.0962,-0.0324 0.0311,-0.005 0.0612,-0.009 0.0847,-0.01 z m 2.50949,0.0796 -0.18955,0.0348 c -0.14768,0.0271 -0.17115,0.0409 -0.10635,0.0625 0.0811,0.0271 0.0803,0.0283 -0.0322,0.0474 -0.14289,0.0243 -0.14836,0.0201 -0.0761,-0.0586 0.032,-0.0348 0.136,-0.0685 0.23119,-0.0747 z m -1.3457,0.059 c 0.009,5.9e-4 0.0155,0.001 0.0178,0.003 0.009,0.007 -0.0482,0.0229 -0.12742,0.0348 -0.0792,0.0119 -0.1515,0.0158 -0.16068,0.009 -0.009,-0.007 0.0481,-0.0229 0.12733,-0.0348 0.0594,-0.009 0.115,-0.0133 0.14294,-0.0119 z m 1.43895,0.003 c 0.008,8.8e-4 0.0114,0.0228 0.006,0.0584 -0.007,0.0474 0.0122,0.089 0.0421,0.0924 0.0325,0.004 0.0326,0.0141 9e-5,0.026 -0.0298,0.0109 -0.0578,0.0168 -0.0622,0.0134 -0.0236,-0.0186 -0.021,-0.15428 0.004,-0.18367 0.004,-0.005 0.007,-0.007 0.0101,-0.006 z m -3.65163,0.0464 c -0.004,0.001 -0.007,0.0102 -0.009,0.0266 -0.004,0.0344 -0.11032,0.0681 -0.26173,0.0831 -0.1403,0.0139 -0.23193,0.0252 -0.20365,0.0252 0.12633,-2.3e-4 0.10199,0.0535 -0.0348,0.0767 -0.084,0.0142 -0.0168,0.0252 0.15131,0.0246 0.26878,-8.8e-4 0.64238,-0.0551 0.49516,-0.0719 -0.0314,-0.004 -0.0756,-0.0491 -0.0984,-0.10104 -0.0196,-0.0448 -0.0315,-0.0651 -0.0388,-0.0633 z m 2.93422,0.015 c 0.0856,2.2e-4 0.0858,0.002 0.003,0.0226 -0.0874,0.0213 -0.12864,0.0174 -0.10701,-0.0101 0.005,-0.007 0.0524,-0.0126 0.10435,-0.0124 z m -1.61572,0.006 c -0.0397,0.001 -0.0923,0.005 -0.16276,0.01 -0.13869,0.009 -0.21527,0.0295 -0.17023,0.0445 0.0611,0.0205 0.035,0.0347 -0.1027,0.056 -0.14403,0.0223 -0.16564,0.0347 -0.0982,0.0561 0.074,0.0235 0.0745,0.0301 0.004,0.046 v 8e-5 c -0.0716,0.0161 -0.0691,0.0257 0.0184,0.071 0.0872,0.0452 0.0967,0.0419 0.0692,-0.0244 -0.0292,-0.0704 -0.0205,-0.0785 0.1066,-0.0976 0.15612,-0.0235 0.21101,5.9e-4 0.15728,0.0687 -0.02,0.0254 -0.0782,0.0298 -0.12941,0.01 -0.063,-0.0246 -0.0831,-0.0189 -0.0623,0.0177 0.0179,0.0314 0.18189,0.0386 0.39172,0.0174 0.19856,-0.0201 0.44498,-0.035 0.54767,-0.0333 0.29186,0.005 0.77228,-0.0385 0.66953,-0.0606 -0.0508,-0.011 -0.31829,-0.0111 -0.59437,-5.9e-4 -0.27609,0.0107 -0.55861,0.0217 -0.62781,0.0243 -0.0692,0.003 -0.13654,-0.005 -0.14965,-0.0159 -0.0131,-0.0114 0.0506,-0.0225 0.14144,-0.0246 0.13807,-0.003 0.16111,-0.0156 0.14061,-0.0757 -0.0255,-0.0746 -0.0294,-0.0926 -0.14866,-0.0889 z m 0.96585,0.007 c 0.0235,-0.001 0.0404,4e-5 0.045,0.004 0.009,0.007 -0.0341,0.0217 -0.0962,0.0323 -0.0621,0.0106 -0.12047,0.0133 -0.12966,0.006 -0.009,-0.007 0.0341,-0.0218 0.0962,-0.0324 0.0311,-0.005 0.0612,-0.009 0.0847,-0.01 z m -1.65521,0.0101 c -0.0248,-2.3e-4 -0.0511,9e-5 -0.0777,0.001 -0.10631,0.004 -0.17843,0.0185 -0.16019,0.0317 0.0182,0.0132 0.12016,0.0204 0.22647,0.0162 0.10631,-0.004 0.17843,-0.0185 0.16019,-0.0317 -0.0137,-0.01 -0.0745,-0.0165 -0.14882,-0.0173 z m 1.23272,0.0145 c 0.009,5.9e-4 0.0155,10e-4 0.0178,0.003 0.009,0.007 -0.0481,0.0229 -0.12733,0.0348 -0.0792,0.0119 -0.15159,0.0158 -0.16077,0.009 -0.009,-0.007 0.0481,-0.0229 0.12734,-0.0348 0.0594,-0.009 0.115,-0.0134 0.14293,-0.0119 z m -2.78881,0.0199 c 0.0598,10e-6 0.13002,0.0113 0.16916,0.0338 0.0379,0.0217 0.0318,0.0317 -0.0271,0.0443 -0.0418,0.009 -0.0824,-0.001 -0.0902,-0.0224 -0.008,-0.0213 -0.0455,-0.0257 -0.0838,-0.01 -0.0383,0.0159 -0.0718,0.0104 -0.0745,-0.0122 -0.003,-0.0225 0.0466,-0.0337 0.10643,-0.0337 z m 2.22031,0.005 c 0.0702,5.9e-4 0.12059,0.008 0.12203,0.0204 0.002,0.0161 -0.0433,0.029 -0.10046,0.0288 -0.21081,-8.8e-4 -0.28527,-0.037 -0.0973,-0.0474 0.0267,-10e-4 0.0523,-0.002 0.0757,-0.002 z m -1.2883,0.0426 c 0.0544,-0.002 0.0267,0.0144 -0.0781,0.0495 -0.0673,0.0226 -0.16679,0.0324 -0.22116,0.0218 -0.0664,-0.0129 -0.0297,-0.0292 0.11141,-0.0496 0.0929,-0.0134 0.15517,-0.0208 0.18781,-0.0217 z m 0.54734,0.022 c -0.01,5.8e-4 -0.0209,0.002 -0.0322,0.005 -0.0513,0.011 -0.0689,0.0281 -0.0468,0.0455 0.0403,0.0318 0.13722,0.005 0.13231,-0.0359 -0.001,-0.0113 -0.0233,-0.0165 -0.0533,-0.0143 z m -0.17827,8.8e-4 c -0.0134,-5.9e-4 -0.03,2.3e-4 -0.0501,0.002 -0.10685,0.0109 -0.10712,0.0128 -0.0101,0.0707 0.0549,0.0327 0.12187,0.0558 0.14882,0.0513 0.0269,-0.004 0.0236,-0.0119 -0.007,-0.0165 -0.031,-0.005 -0.0485,-0.0328 -0.0389,-0.0625 0.01,-0.0297 -0.002,-0.0436 -0.0423,-0.0453 z m 3.37629,0.0322 c 0.0165,8.8e-4 0.0247,0.007 0.0204,0.019 -0.008,0.0235 0.003,0.0449 0.0266,0.0475 0.0231,0.003 0.0395,0.0255 0.0367,0.0509 -0.003,0.0253 -0.0282,0.0211 -0.0563,-0.009 -0.0281,-0.0306 -0.0856,-0.0554 -0.12767,-0.0553 -0.0658,2.9e-4 -0.0616,-0.005 0.0299,-0.0381 0.0293,-0.0106 0.054,-0.0154 0.0705,-0.0146 z m 0.15322,0.20491 -0.0925,0.10286 c -0.0509,0.0566 -0.0922,0.10133 -0.0918,0.0995 3e-4,-0.002 -0.0168,-0.0335 -0.0381,-0.0705 -0.0357,-0.062 -0.0285,-0.0697 0.0919,-0.0995 z m -9.20276,0.002 c -0.007,5.9e-4 -0.0144,0.002 -0.0208,0.005 -0.0258,0.009 -0.0319,0.0289 -0.0135,0.0434 0.0184,0.0145 0.0544,0.0186 0.0802,0.009 0.0258,-0.009 0.0319,-0.0289 0.0135,-0.0434 -0.0138,-0.0109 -0.0375,-0.0159 -0.0594,-0.0138 z m -0.95291,0.004 c -0.0721,10e-4 -0.12594,0.006 -0.13082,0.0119 -0.0183,0.0232 0.29069,0.0325 0.35074,0.0105 0.0293,-0.0107 -0.035,-0.0208 -0.14285,-0.0225 -0.027,-5.9e-4 -0.053,-2.9e-4 -0.0771,0 z m 5.30683,5.8e-4 c 0.0194,-0.002 0.0208,0.0143 0.003,0.0367 -0.0177,0.0225 -0.01,0.0434 0.0174,0.0465 0.0273,0.003 0.0397,0.0176 0.0278,0.0323 -0.012,0.0146 -0.0513,0.037 -0.0873,0.0497 -0.0512,0.0181 -0.0579,0.003 -0.0309,-0.0689 0.019,-0.0506 0.0504,-0.094 0.0698,-0.0963 z m -3.98883,0.0221 c -0.0326,10e-4 -0.0542,0.003 -0.0567,0.006 -0.02,0.0253 0.17038,0.0412 0.25791,0.0215 0.0577,-0.013 0.028,-0.0233 -0.0778,-0.027 -0.047,-0.002 -0.0908,-0.002 -0.12344,-8.8e-4 z m 0.65344,0.002 c -0.0112,8.8e-4 -0.0246,0.004 -0.0375,0.009 -0.0258,0.009 -0.031,0.0297 -0.0115,0.045 0.0194,0.0153 0.0471,0.0128 0.0616,-0.006 0.0145,-0.0184 0.0197,-0.0386 0.0116,-0.045 -0.004,-0.003 -0.013,-0.004 -0.0241,-0.003 z m -0.22896,0.008 c -0.0128,-6e-5 -0.0267,8.8e-4 -0.0411,0.003 -0.10047,0.0143 -0.10029,0.0159 0.004,0.0363 0.0602,0.0118 0.10748,0.005 0.1051,-0.0149 -0.002,-0.015 -0.0299,-0.0242 -0.0683,-0.0244 z m 0.84059,0.0318 c -0.0326,10e-4 -0.0558,0.005 -0.0617,0.0129 -0.0299,0.0379 0.13245,0.0627 0.2453,0.0374 0.0823,-0.0184 0.0748,-0.0234 -0.0654,-0.0428 -0.0436,-0.006 -0.0856,-0.008 -0.11821,-0.007 z m 0.84084,0.0232 c -0.0814,8.8e-4 -0.16109,0.009 -0.1728,0.0241 -0.0127,0.0161 0.0465,0.0327 0.13157,0.0368 0.15571,0.008 0.26114,-0.0117 0.22407,-0.0409 -0.0184,-0.0145 -0.10147,-0.021 -0.18284,-0.0201 z m -0.37421,5.9e-4 c -0.0127,2.9e-4 -0.0266,10e-4 -0.0411,0.003 -0.10029,0.0141 -0.10012,0.0154 0.003,0.0285 0.0596,0.008 0.1068,8.8e-4 0.10493,-0.0148 -0.001,-0.0118 -0.0291,-0.0182 -0.0673,-0.0173 z m 4.7288,0.0471 c 0.0114,10e-4 0.0818,0.002 0.15645,10e-4 l 0.13572,-5.8e-4 -0.1227,0.0251 c -0.0675,0.0138 -0.13789,0.0131 -0.15645,-0.001 -0.0186,-0.0146 -0.0244,-0.0256 -0.013,-0.0244 z"
         id="path2371"
         inkscape:connector-curvature="0" />
      <text
         xml:space="preserve"
         style="font-style:normal;font-variant:normal;font-weight:normal;font-stretch:normal;font-size:2.03145313px;line-height:1.25;font-family:'Helvetica Neue LT Com';-inkscape-font-specification:'Helvetica Neue LT Com';letter-spacing:0px;word-spacing:0px;fill:#000000;fill-opacity:1;stroke:none;stroke-width:0.05078633"
         x="107.23518"
         y="66.9328"
         id="text2375"><tspan
           sodipodi:role="line"
           id="tspan2373"
           x="107.23518"
           y="66.9328"
           style="font-style:normal;font-variant:normal;font-weight:normal;font-stretch:normal;font-family:'Helvetica Neue LT Com';-inkscape-font-specification:'Helvetica Neue LT Com';stroke-width:0.05078633">2 Stripped Wires</tspan></text>
      <path
         inkscape:connector-curvature="0"
         id="path3705"
         d="M 70.460894,58.24959 V 47.28057"
         style="fill:none;stroke:#000000;stroke-width:0.57039201;stroke-linecap:butt;stroke-linejoin:miter;stroke-miterlimit:4;stroke-dasharray:none;stroke-opacity:1" />
      <text
         id="text3709"
         y="52.788544"
         x="72.307503"
         style="font-style:normal;font-variant:normal;font-weight:normal;font-stretch:normal;font-size:2.03145313px;line-height:1.25;font-family:'Helvetica Neue LT Com';-inkscape-font-specification:'Helvetica Neue LT Com';letter-spacing:0px;word-spacing:0px;fill:#000000;fill-opacity:1;stroke:none;stroke-width:0.05078633"
         xml:space="preserve"><tspan
           style="font-style:normal;font-variant:normal;font-weight:normal;font-stretch:normal;font-family:'Helvetica Neue LT Com';-inkscape-font-specification:'Helvetica Neue LT Com';stroke-width:0.05078633"
           y="52.788544"
           x="72.307503"
           id="tspan3707"
           sodipodi:role="line">USB (serial over USB)</tspan></text>
      <text
         xml:space="preserve"
         style="font-style:normal;font-variant:normal;font-weight:normal;font-stretch:normal;font-size:4.3436079px;line-height:1.25;font-family:'Helvetica Neue LT Com';-inkscape-font-specification:'Helvetica Neue LT Com';letter-spacing:0px;word-spacing:0px;fill:#000000;fill-opacity:1;stroke:none;stroke-width:0.1085902"
         x="63.378124"
         y="44.114182"
         id="text3715"><tspan
           sodipodi:role="line"
           id="tspan3713"
           x="63.378124"
           y="44.114182"
           style="font-style:normal;font-variant:normal;font-weight:normal;font-stretch:normal;font-family:'Helvetica Neue LT Com';-inkscape-font-specification:'Helvetica Neue LT Com';stroke-width:0.1085902">relay.py</tspan></text>
      <text
         xml:space="preserve"
         style="font-style:normal;font-variant:normal;font-weight:normal;font-stretch:normal;font-size:2.03145313px;line-height:1.25;font-family:'Helvetica Neue LT Com';-inkscape-font-specification:'Helvetica Neue LT Com';letter-spacing:0px;word-spacing:0px;fill:#000000;fill-opacity:1;stroke:none;stroke-width:0.05078633"
         x="63.402538"
         y="70.901855"
         id="text3719"><tspan
           sodipodi:role="line"
           id="tspan3717"
           x="63.402538"
           y="70.901855"
           style="font-style:normal;font-variant:normal;font-weight:normal;font-stretch:normal;font-family:'Helvetica Neue LT Com';-inkscape-font-specification:'Helvetica Neue LT Com';stroke-width:0.05078633">relay_sketch.ino</tspan></text>
      <text
         id="text3723"
         y="63.237793"
         x="135.83144"
         style="font-style:normal;font-variant:normal;font-weight:normal;font-stretch:normal;font-size:4.3436079px;line-height:1.25;font-family:'Helvetica Neue LT Com';-inkscape-font-specification:'Helvetica Neue LT Com';letter-spacing:0px;word-spacing:0px;fill:#000000;fill-opacity:1;stroke:none;stroke-width:0.1085902"
         xml:space="preserve"><tspan
           style="font-style:normal;font-variant:normal;font-weight:normal;font-stretch:normal;font-family:'Helvetica Neue LT Com';-inkscape-font-specification:'Helvetica Neue LT Com';stroke-width:0.1085902"
           y="63.237793"
           x="135.83144"
           id="tspan3721"
           sodipodi:role="line">24VDC 100mA</tspan></text>
      <text
         xml:space="preserve"
         style="font-style:normal;font-variant:normal;font-weight:normal;font-stretch:normal;font-size:4.3436079px;line-height:1.25;font-family:'Helvetica Neue LT Com';-inkscape-font-specification:'Helvetica Neue LT Com';letter-spacing:0px;word-spacing:0px;fill:#000000;fill-opacity:1;stroke:none;stroke-width:0.1085902"
         x="135.83144"
         y="74.495483"
         id="text4132"><tspan
           sodipodi:role="line"
           id="tspan4130"
           x="135.83144"
           y="74.495483"
           style="font-style:normal;font-variant:normal;font-weight:normal;font-stretch:normal;font-family:'Helvetica Neue LT Com';-inkscape-font-specification:'Helvetica Neue LT Com';stroke-width:0.1085902">Solenoid Valve</tspan></text>
      <text
         xml:space="preserve"
         style="font-style:normal;font-variant:normal;font-weight:normal;font-stretch:normal;font-size:2.03145313px;line-height:1.25;font-family:'Helvetica Neue LT Com';-inkscape-font-specification:'Helvetica Neue LT Com';letter-spacing:0px;word-spacing:0px;fill:#000000;fill-opacity:1;stroke:none;stroke-width:0.05078633"
         x="135.95668"
         y="65.850342"
         id="text4136"><tspan
           sodipodi:role="line"
           id="tspan4134"
           x="135.95668"
           y="65.850342"
           style="font-style:normal;font-variant:normal;font-weight:normal;font-stretch:normal;font-family:'Helvetica Neue LT Com';-inkscape-font-specification:'Helvetica Neue LT Com';stroke-width:0.05078633">Polarity doesn't matter</tspan></text>
      <text
         id="text4140"
         y="76.891541"
         x="135.95668"
         style="font-style:normal;font-variant:normal;font-weight:normal;font-stretch:normal;font-size:2.03145313px;line-height:1.25;font-family:'Helvetica Neue LT Com';-inkscape-font-specification:'Helvetica Neue LT Com';letter-spacing:0px;word-spacing:0px;fill:#000000;fill-opacity:1;stroke:none;stroke-width:0.05078633"
         xml:space="preserve"><tspan
           style="font-style:normal;font-variant:normal;font-weight:normal;font-stretch:normal;font-family:'Helvetica Neue LT Com';-inkscape-font-specification:'Helvetica Neue LT Com';stroke-width:0.05078633"
           y="76.891541"
           x="135.95668"
           id="tspan4138"
           sodipodi:role="line">Polarity doesn't matter</tspan></text>
    </g>
  </g>
</svg>
